<?xml version="1.0" encoding="UTF-8" standalone="no"?>
<svg
   xmlns:dc="http://purl.org/dc/elements/1.1/"
   xmlns:cc="http://creativecommons.org/ns#"
   xmlns:rdf="http://www.w3.org/1999/02/22-rdf-syntax-ns#"
   xmlns:svg="http://www.w3.org/2000/svg"
   xmlns="http://www.w3.org/2000/svg"
   xmlns:sodipodi="http://sodipodi.sourceforge.net/DTD/sodipodi-0.dtd"
   xmlns:inkscape="http://www.inkscape.org/namespaces/inkscape"
   width="10.073288mm"
   height="10.073514mm"
   viewBox="0 0 10.073288 10.073514"
   version="1.1"
   id="svg2145"
   inkscape:version="1.0beta2 (2b71d25, 2019-12-03)"
   sodipodi:docname="adfree_shadow_solid.svg">
  <defs
     id="defs2139" />
  <sodipodi:namedview
     id="base"
     pagecolor="#ffffff"
     bordercolor="#666666"
     borderopacity="1.0"
     inkscape:pageopacity="0.0"
     inkscape:pageshadow="2"
     inkscape:zoom="2.9455621"
     inkscape:cx="35.311435"
     inkscape:cy="40.04214"
     inkscape:document-units="mm"
     inkscape:current-layer="layer1"
     inkscape:document-rotation="0"
     showgrid="false"
     fit-margin-top="0"
     fit-margin-left="0"
     fit-margin-right="0"
     fit-margin-bottom="0"
     inkscape:window-width="1280"
     inkscape:window-height="752"
     inkscape:window-x="-38"
     inkscape:window-y="0"
     inkscape:window-maximized="0" />
  <metadata
     id="metadata2142">
    <rdf:RDF>
      <cc:Work
         rdf:about="">
        <dc:format>image/svg+xml</dc:format>
        <dc:type
           rdf:resource="http://purl.org/dc/dcmitype/StillImage" />
        <dc:title />
      </cc:Work>
    </rdf:RDF>
  </metadata>
  <g
     inkscape:label="Layer 1"
     inkscape:groupmode="layer"
     id="layer1"
     transform="translate(-55.439546,-99.284671)">
    <g
       id="g2805">
      <path
         d="m 60.427357,99.28473 a 5.0367096,5.0367096 0 0 0 -4.987811,5.03639 5.0367096,5.0367096 0 0 0 5.036386,5.0369 5.0367096,5.0367096 0 0 0 5.036902,-5.0369 5.0367096,5.0367096 0 0 0 -5.036902,-5.03639 5.0367096,5.0367096 0 0 0 -0.04857,0 z"
         style="font-variation-settings:normal;vector-effect:none;fill:#384352;fill-opacity:1;stroke:none;stroke-width:0.512622;stroke-linecap:butt;stroke-linejoin:miter;stroke-miterlimit:4;stroke-dasharray:none;stroke-dashoffset:0;stroke-opacity:1;paint-order:stroke fill markers;stop-color:#000000"
         id="path2821-9-7-2-3-7-2-1-6-3-2-9-8-2-93-4"
         inkscape:connector-curvature="0" />
      <path
         inkscape:connector-curvature="0"
         d="m 62.83226,100.50136 -6.071465,6.07146 1.204576,1.20458 -0.03255,0.0326 1.421617,1.42162 a 5.0367096,5.0367096 0 0 0 1.121381,0.12661 5.0367096,5.0367096 0 0 0 5.036899,-5.03691 5.0367096,5.0367096 0 0 0 -0.174665,-1.31413 z"
         style="fill:#222730;fill-opacity:1;stroke-width:5.43888;paint-order:stroke fill markers;stop-color:#000000"
         id="rect1531" />
      <path
         inkscape:connector-curvature="0"
         d="m 60.754438,100.40059 -4.199226,4.33255 0.464053,0.44959 -0.520383,0.53692 2.387971,2.38745 5.120616,-5.2834 a 0.86816405,0.87643228 0 0 1 -0.170532,-0.52141 0.86816405,0.87643228 0 0 1 0.02739,-0.21756 l -1.737879,-1.68414 z"
         style="fill:#222730;fill-opacity:1;stroke-width:4;paint-order:stroke fill markers;stop-color:#000000"
         id="rect1658" />
      <path
         d="m 61.558188,99.88204 c -0.130366,3e-5 -0.259421,0.0227 -0.382651,0.0725 -0.281662,0.11399 -0.486179,0.35126 -0.61326,0.63518 -0.12708,0.28392 -0.188158,0.62134 -0.199525,0.99805 -0.02253,0.7468 0.15522,1.65381 0.527814,2.58264 a 0.28943779,0.28943779 0 0 0 0.0041,0.0123 v 0 a 0.28943779,0.28943779 0 0 0 0,8.9e-4 0.28943779,0.28943779 0 0 0 0,8.9e-4 v 0 a 0.28943779,0.28943779 0 0 0 0.0057,0.0117 c 0.37829,0.92654 0.881346,1.70186 1.416936,2.22278 0.270165,0.26277 0.548761,0.46275 0.837543,0.57837 0.288749,0.11561 0.600695,0.14387 0.882341,0.0299 0.281679,-0.11399 0.486236,-0.35129 0.613317,-0.63521 0.127081,-0.28392 0.188198,-0.62139 0.199566,-0.99809 0.02263,-0.75025 -0.155787,-1.66198 -0.531916,-2.59531 -4.1e-5,0 0,0 0,0 0,-8.1e-4 0,-9.7e-4 -8.09e-4,-0.001 h -4.1e-5 c -0.378864,-0.93221 -0.884736,-1.7114 -1.422801,-2.23473 -0.270174,-0.26277 -0.54877,-0.46274 -0.837544,-0.57836 -0.162437,-0.065 -0.332261,-0.10242 -0.499885,-0.1024 z m 0.0045,0.57728 c 0.08076,0 0.172737,0.0195 0.280158,0.0625 0.190965,0.0764 0.417772,0.23098 0.649005,0.45589 0.460411,0.44781 0.936857,1.16861 1.289936,2.03694 0,2e-5 3.9e-5,0 3.9e-5,0 0.350717,0.8701 0.509894,1.72011 0.490516,2.36252 -0.0097,0.32244 -0.06523,0.5912 -0.149265,0.77896 -0.08404,0.18775 -0.185132,0.28779 -0.302123,0.33514 -0.116993,0.0473 -0.259082,0.0457 -0.450046,-0.0307 -0.190957,-0.0765 -0.417814,-0.23098 -0.649046,-0.4559 -0.46067,-0.44806 -0.937415,-1.16941 -1.290551,-2.03841 -4.1e-5,0 0,0 0,0 -0.350239,-0.86948 -0.509182,-1.71878 -0.489804,-2.36075 0.0097,-0.32244 0.06522,-0.59122 0.149257,-0.77897 0.08404,-0.18775 0.185003,-0.28776 0.301994,-0.3351 0.05119,-0.0207 0.107219,-0.0321 0.170035,-0.0319 z"
         style="color:#000000;font-style:normal;font-variant:normal;font-weight:normal;font-stretch:normal;font-size:medium;line-height:normal;font-family:sans-serif;font-variant-ligatures:normal;font-variant-position:normal;font-variant-caps:normal;font-variant-numeric:normal;font-variant-alternates:normal;font-variant-east-asian:normal;font-feature-settings:normal;font-variation-settings:normal;text-indent:0;text-align:start;text-decoration:none;text-decoration-line:none;text-decoration-style:solid;text-decoration-color:#000000;letter-spacing:normal;word-spacing:normal;text-transform:none;writing-mode:lr-tb;direction:ltr;text-orientation:mixed;dominant-baseline:auto;baseline-shift:baseline;text-anchor:start;white-space:normal;shape-padding:0;shape-margin:0;inline-size:0;clip-rule:nonzero;display:inline;overflow:visible;visibility:visible;isolation:auto;mix-blend-mode:normal;color-interpolation:sRGB;color-interpolation-filters:linearRGB;solid-color:#000000;solid-opacity:1;vector-effect:none;fill:#f64c4c;fill-opacity:1;fill-rule:nonzero;stroke:none;stroke-width:0.578876;stroke-linecap:round;stroke-linejoin:round;stroke-miterlimit:4;stroke-dasharray:none;stroke-dashoffset:0;stroke-opacity:1;paint-order:stroke fill markers;color-rendering:auto;image-rendering:auto;shape-rendering:auto;text-rendering:auto;enable-background:accumulate;stop-color:#000000"
         id="path1287-8-6-0-2-47-6-22-75-1-7-7-0-5-1-5-4-9-9-3-0-7"
         inkscape:connector-curvature="0" />
      <path
         id="path2569-7-4-0-7-9-8-8-6-8-9-5-2-8-5-4-9-52-3"
         style="color:#000000;font-style:normal;font-variant:normal;font-weight:normal;font-stretch:normal;font-size:medium;line-height:normal;font-family:sans-serif;font-variant-ligatures:normal;font-variant-position:normal;font-variant-caps:normal;font-variant-numeric:normal;font-variant-alternates:normal;font-variant-east-asian:normal;font-feature-settings:normal;font-variation-settings:normal;text-indent:0;text-align:start;text-decoration:none;text-decoration-line:none;text-decoration-style:solid;text-decoration-color:#000000;letter-spacing:normal;word-spacing:normal;text-transform:none;writing-mode:lr-tb;direction:ltr;text-orientation:mixed;dominant-baseline:auto;baseline-shift:baseline;text-anchor:start;white-space:normal;shape-padding:0;shape-margin:0;inline-size:0;clip-rule:nonzero;display:inline;overflow:visible;visibility:visible;isolation:auto;mix-blend-mode:normal;color-interpolation:sRGB;color-interpolation-filters:linearRGB;solid-color:#000000;solid-opacity:1;vector-effect:none;fill:#f64c4c;fill-opacity:1;fill-rule:nonzero;stroke:none;stroke-width:0.784635;stroke-linecap:butt;stroke-linejoin:miter;stroke-miterlimit:4;stroke-dasharray:none;stroke-dashoffset:0;stroke-opacity:1;color-rendering:auto;image-rendering:auto;shape-rendering:auto;text-rendering:auto;enable-background:accumulate;stop-color:#000000"
         d="m 63.801518,101.93447 -2.504255,2.10536 a 3.8131348,6.5516095 2.7845888 0 1 0.25934,0.96878 l 2.544611,-2.1392 a 2.1427238,0.78470589 85.9471 0 1 -0.299696,-0.93494 z"
         inkscape:connector-curvature="0" />
      <path
         inkscape:connector-curvature="0"
         id="path1758-2-5-8-3-9-8-6-1-57-8-7-5-3-0"
         d="m 57.640929,103.61684 -0.840302,0.86772 a 1.3069378,1.3069378 0 0 0 -0.449496,1.53752 1.3069378,1.3069378 0 0 0 8.09e-4,0.002 1.3069378,1.3069378 0 0 0 1.392469,0.79209 l 1.233689,0.0399 c -0.36481,-0.35889 -0.707048,-0.88846 -0.965053,-1.52039 a 0.19947681,0.19947681 0 0 1 -0.0038,-0.008 0.19947681,0.19947681 0 0 1 0,-8.1e-4 0.19947681,0.19947681 0 0 1 0,-8.1e-4 0.19947681,0.19947681 0 0 1 -0.0028,-0.008 c -0.243701,-0.60752 -0.366226,-1.2013 -0.364835,-1.7002 z"
         style="fill:#ffffff;fill-opacity:1;stroke:none;stroke-width:0.566177;stroke-linecap:round;stroke-linejoin:round;stroke-miterlimit:4;stroke-dasharray:none;stroke-opacity:1;paint-order:stroke fill markers" />
      <g
         id="g2701"
         transform="translate(-49.137054,-19.654789)">
        <path
           d="m 109.36066,125.96046 c -0.12968,0.15218 -0.3131,0.25685 -0.52154,0.2854 0.0381,0.38144 -0.17209,0.75077 -0.53997,0.89966 -0.44921,0.1818 -0.9581,-0.0359 -1.14421,-0.49582 -0.0529,-0.13076 -0.0734,-0.26557 -0.0654,-0.39577 h -0.56451 c -0.009,0.20218 0.0243,0.40917 0.10489,0.60821 0.29956,0.74018 1.14531,1.10637 1.8817,0.80835 0.67746,-0.27417 1.0301,-1.01662 0.84904,-1.71003 z"
           style="color:#000000;font-style:normal;font-variant:normal;font-weight:normal;font-stretch:normal;font-size:medium;line-height:normal;font-family:sans-serif;font-variant-ligatures:normal;font-variant-position:normal;font-variant-caps:normal;font-variant-numeric:normal;font-variant-alternates:normal;font-variant-east-asian:normal;font-feature-settings:normal;font-variation-settings:normal;text-indent:0;text-align:start;text-decoration:none;text-decoration-line:none;text-decoration-style:solid;text-decoration-color:#000000;letter-spacing:normal;word-spacing:normal;text-transform:none;writing-mode:lr-tb;direction:ltr;text-orientation:mixed;dominant-baseline:auto;baseline-shift:baseline;text-anchor:start;white-space:normal;shape-padding:0;shape-margin:0;inline-size:0;clip-rule:nonzero;display:inline;overflow:visible;visibility:visible;isolation:auto;mix-blend-mode:normal;color-interpolation:sRGB;color-interpolation-filters:linearRGB;solid-color:#000000;solid-opacity:1;vector-effect:none;fill:#ffffff;fill-opacity:1;fill-rule:nonzero;stroke:none;stroke-width:0.566351;stroke-linecap:butt;stroke-linejoin:miter;stroke-miterlimit:4;stroke-dasharray:none;stroke-dashoffset:0;stroke-opacity:1;paint-order:stroke fill markers;color-rendering:auto;image-rendering:auto;shape-rendering:auto;text-rendering:auto;enable-background:accumulate;stop-color:#000000"
           id="path2768-5-2-79-5-1-8-9-7-2-7-9-5-59-5-21-4-8"
           inkscape:connector-curvature="0" />
        <path
           id="rect2673"
           style="fill:#bac2d0;fill-opacity:1;stroke-width:15.1181;paint-order:stroke fill markers;stop-color:#000000"
           d="m 18.082031,26.537109 c -0.490129,0.575169 -1.182898,0.97022 -1.970703,1.078125 0.144,1.441663 -0.650603,2.837657 -2.041016,3.400391 -0.324103,0.131168 -0.65584,0.191541 -0.986328,0.216797 l 1.773438,1.773437 c 0.0052,-0.0021 0.01041,-0.0037 0.01563,-0.0059 2.560479,-1.036233 3.893306,-3.842128 3.208984,-6.462891 z"
           transform="matrix(0.26458333,0,0,0.26458333,104.57645,118.93936)"
           inkscape:connector-curvature="0" />
      </g>
      <path
         id="path1223-5-0-8-5-0-0-3-7-0-1-9-5-9-4-1-07-3-8-6-7-2"
         d="m 60.084958,101.09302 -1.988237,2.05321 c -0.03117,0.1124 -0.05131,0.24846 -0.05598,0.40296 -0.01336,0.44244 0.09621,1.02779 0.337585,1.62703 0,0 0,0 0,0 0.243377,0.59891 0.571964,1.09607 0.889453,1.40486 0.144112,0.14014 0.285481,0.24017 0.408565,0.2971 l 0.303588,0.01 v 8.1e-4 l 0.18442,0.005 2.299019,0.0744 c -0.170747,-0.10845 -0.33795,-0.24476 -0.50207,-0.40438 -0.03657,-0.0356 -0.07303,-0.0724 -0.109241,-0.1103 -0.0051,-0.005 -0.01015,-0.0107 -0.01522,-0.016 -0.01392,-0.0147 -0.02776,-0.0295 -0.04159,-0.0446 -0.0038,-0.004 -0.0075,-0.008 -0.0113,-0.0123 -0.01485,-0.0163 -0.02973,-0.0327 -0.04452,-0.0493 -0.0034,-0.004 -0.0068,-0.008 -0.01019,-0.0115 -0.01511,-0.0171 -0.03019,-0.0344 -0.04521,-0.0518 -0.0031,-0.004 -0.0061,-0.007 -0.0091,-0.0106 -0.05499,-0.0643 -0.109435,-0.13131 -0.163181,-0.20078 -0.363702,-0.46977 -0.697347,-1.05405 -0.967416,-1.7155 a 0.28943779,0.28943779 0 0 1 -0.0053,-0.011 0.00726577,0.00494581 68.913093 0 1 -0.0015,-0.003 v 0 a 0.28943779,0.28943779 0 0 1 -0.004,-0.0118 c -0.280748,-0.69992 -0.450823,-1.38738 -0.507936,-2.00327 v -0.005 c -0.0039,-0.0424 -0.0072,-0.0844 -0.01,-0.1261 -8.9e-4,-0.006 -8.9e-4,-0.0114 -0.0013,-0.017 -0.0028,-0.0429 -0.0049,-0.0854 -0.0066,-0.12751 0,-0.004 0,-0.007 -8.9e-4,-0.0112 -0.0015,-0.0434 -0.0026,-0.0865 -0.003,-0.12902 -8.9e-4,-0.0554 0,-0.10998 0.0017,-0.16373 0.0069,-0.2287 0.03222,-0.44284 0.07939,-0.6394 z"
         style="fill:#ffffff;fill-opacity:1;stroke:none;stroke-width:0.566177;stroke-linecap:round;stroke-linejoin:round;stroke-miterlimit:4;stroke-dasharray:none;stroke-opacity:1;paint-order:stroke fill markers"
         inkscape:connector-curvature="0" />
    </g>
  </g>
</svg>
