<?xml version="1.0" encoding="UTF-8" standalone="no"?>
<svg
   xmlns:dc="http://purl.org/dc/elements/1.1/"
   xmlns:cc="http://creativecommons.org/ns#"
   xmlns:rdf="http://www.w3.org/1999/02/22-rdf-syntax-ns#"
   xmlns:svg="http://www.w3.org/2000/svg"
   xmlns="http://www.w3.org/2000/svg"
   xmlns:sodipodi="http://sodipodi.sourceforge.net/DTD/sodipodi-0.dtd"
   xmlns:inkscape="http://www.inkscape.org/namespaces/inkscape"
   width="10.073288mm"
   height="10.073654mm"
   viewBox="0 0 10.073288 10.073654"
   version="1.1"
   id="svg2846"
   inkscape:version="1.0beta2 (2b71d25, 2019-12-03)"
   sodipodi:docname="adfree_shadow_gaps.svg">
  <defs
     id="defs2840" />
  <sodipodi:namedview
     id="base"
     pagecolor="#ffffff"
     bordercolor="#666666"
     borderopacity="1.0"
     inkscape:pageopacity="0.0"
     inkscape:pageshadow="2"
     inkscape:zoom="5.0424595"
     inkscape:cx="4.4503532"
     inkscape:cy="-5.0998659"
     inkscape:document-units="mm"
     inkscape:current-layer="layer1"
     inkscape:document-rotation="0"
     showgrid="false"
     fit-margin-top="0"
     fit-margin-left="0"
     fit-margin-right="0"
     fit-margin-bottom="0"
     inkscape:window-width="1280"
     inkscape:window-height="726"
     inkscape:window-x="-200"
     inkscape:window-y="0"
     inkscape:window-maximized="0" />
  <metadata
     id="metadata2843">
    <rdf:RDF>
      <cc:Work
         rdf:about="">
        <dc:format>image/svg+xml</dc:format>
        <dc:type
           rdf:resource="http://purl.org/dc/dcmitype/StillImage" />
        <dc:title />
      </cc:Work>
    </rdf:RDF>
  </metadata>
  <g
     inkscape:label="Layer 1"
     inkscape:groupmode="layer"
     id="layer1"
     transform="translate(-104.57645,-118.93936)">
    <g
       id="g2793">
      <path
         inkscape:connector-curvature="0"
         id="path2821-9-7-2-3-7-2-1-6-3-2-9-8-2-93-4-9"
         style="font-variation-settings:normal;vector-effect:none;fill:#384352;fill-opacity:1;stroke:none;stroke-width:0.512622;stroke-linecap:butt;stroke-linejoin:miter;stroke-miterlimit:4;stroke-dasharray:none;stroke-dashoffset:0;stroke-opacity:1;paint-order:stroke fill markers;stop-color:#000000"
         d="m 109.56426,118.93942 a 5.0367097,5.0367097 0 0 0 -4.98781,5.03639 5.0367097,5.0367097 0 0 0 5.03639,5.0369 5.0367097,5.0367097 0 0 0 5.0369,-5.0369 5.0367097,5.0367097 0 0 0 -5.0369,-5.03639 5.0367097,5.0367097 0 0 0 -0.0486,0 z" />
      <path
         inkscape:connector-curvature="0"
         d="m 112.01605,120.53963 a 3.5502765,1.7295238 66.969711 0 1 1.03663,1.42731 3.5502765,1.7295238 66.969711 0 1 0.67438,1.87843 l 0.83043,-0.82992 a 5.0367096,5.0367096 0 0 0 -0.14159,-0.55707 l -1.91874,-1.91875 z m -2.40657,1.17926 -0.49248,0.49248 0.67541,0.67489 a 3.5502765,1.7295238 66.969711 0 1 -0.18293,-1.16737 z"
         style="fill:#222730;fill-opacity:1;stroke-width:4;paint-order:stroke fill markers;stop-color:#000000"
         id="rect2062" />
      <path
         d="m 109.7816,126.24518 c -0.12967,0.15217 -0.3131,0.25685 -0.52153,0.28539 0.0381,0.38144 -0.17209,0.75077 -0.53998,0.89966 -0.4492,0.1818 -0.95809,-0.0359 -1.1442,-0.49582 -0.0529,-0.13075 -0.0734,-0.26557 -0.0654,-0.39577 h -0.56452 c -0.009,0.20218 0.0243,0.40918 0.1049,0.60821 0.29955,0.74018 1.14531,1.10637 1.8817,0.80835 0.67746,-0.27417 1.03009,-1.01662 0.84903,-1.71002 z"
         style="color:#000000;font-style:normal;font-variant:normal;font-weight:normal;font-stretch:normal;font-size:medium;line-height:normal;font-family:sans-serif;font-variant-ligatures:normal;font-variant-position:normal;font-variant-caps:normal;font-variant-numeric:normal;font-variant-alternates:normal;font-variant-east-asian:normal;font-feature-settings:normal;font-variation-settings:normal;text-indent:0;text-align:start;text-decoration:none;text-decoration-line:none;text-decoration-style:solid;text-decoration-color:#000000;letter-spacing:normal;word-spacing:normal;text-transform:none;writing-mode:lr-tb;direction:ltr;text-orientation:mixed;dominant-baseline:auto;baseline-shift:baseline;text-anchor:start;white-space:normal;shape-padding:0;shape-margin:0;inline-size:0;clip-rule:nonzero;display:inline;overflow:visible;visibility:visible;isolation:auto;mix-blend-mode:normal;color-interpolation:sRGB;color-interpolation-filters:linearRGB;solid-color:#000000;solid-opacity:1;vector-effect:none;fill:#222730;fill-opacity:1;fill-rule:nonzero;stroke:none;stroke-width:0.56635;stroke-linecap:butt;stroke-linejoin:miter;stroke-miterlimit:4;stroke-dasharray:none;stroke-dashoffset:0;stroke-opacity:1;paint-order:stroke fill markers;color-rendering:auto;image-rendering:auto;shape-rendering:auto;text-rendering:auto;enable-background:accumulate;stop-color:#000000"
         id="path2768-5-2-79-5-1-8-9-7-2-7-9-5-59-5-21-4-7"
         inkscape:connector-curvature="0" />
      <path
         inkscape:connector-curvature="0"
         d="m 111.96902,120.15619 -0.28938,0.28939 a 3.4686573,1.552423 65.691148 0 1 1.6862,2.56677 3.4686573,1.552423 65.691148 0 1 -0.38964,3.40444 3.4686573,1.552423 65.691148 0 1 -2.81637,-3.03495 3.4686573,1.552423 65.691148 0 1 -0.31574,-1.10071 l -3.94653,3.94653 1.20458,1.20458 -0.0326,0.0326 1.42162,1.42162 a 5.0367096,5.0367096 0 0 0 1.12138,0.12661 5.0367096,5.0367096 0 0 0 5.0369,-5.0369 5.0367096,5.0367096 0 0 0 -0.17467,-1.31414 z"
         style="fill:#222730;fill-opacity:1;stroke-width:5.43888;paint-order:stroke fill markers;stop-color:#000000"
         id="rect1531-0" />
      <path
         inkscape:connector-curvature="0"
         id="path1287-8-6-0-2-47-6-22-75-1-7-5-4-2-0-9-5-3-3-03-5-8-3"
         style="color:#000000;font-style:normal;font-variant:normal;font-weight:normal;font-stretch:normal;font-size:medium;line-height:normal;font-family:sans-serif;font-variant-ligatures:normal;font-variant-position:normal;font-variant-caps:normal;font-variant-numeric:normal;font-variant-alternates:normal;font-variant-east-asian:normal;font-feature-settings:normal;font-variation-settings:normal;text-indent:0;text-align:start;text-decoration:none;text-decoration-line:none;text-decoration-style:solid;text-decoration-color:#000000;letter-spacing:normal;word-spacing:normal;text-transform:none;writing-mode:lr-tb;direction:ltr;text-orientation:mixed;dominant-baseline:auto;baseline-shift:baseline;text-anchor:start;white-space:normal;shape-padding:0;shape-margin:0;inline-size:0;clip-rule:nonzero;display:inline;overflow:visible;visibility:visible;isolation:auto;mix-blend-mode:normal;color-interpolation:sRGB;color-interpolation-filters:linearRGB;solid-color:#000000;solid-opacity:1;vector-effect:none;fill:#222730;fill-opacity:1;fill-rule:nonzero;stroke:none;stroke-width:0.578877;stroke-linecap:round;stroke-linejoin:round;stroke-miterlimit:4;stroke-dasharray:none;stroke-dashoffset:0;stroke-opacity:1;paint-order:stroke fill markers;color-rendering:auto;image-rendering:auto;shape-rendering:auto;text-rendering:auto;enable-background:accumulate;stop-color:#000000"
         d="m 111.18302,119.89161 c -0.13001,1.4e-4 -0.25847,0.0228 -0.38137,0.0724 -0.28166,0.11399 -0.48632,0.35118 -0.6134,0.6351 -0.12709,0.28392 -0.1881,0.62116 -0.19947,0.99787 -0.0225,0.7468 0.15503,1.65396 0.52762,2.58279 a 0.28943779,0.28943779 0 0 0 0.004,0.0124 0.28943779,0.28943779 0 0 0 0,10e-4 0.28943779,0.28943779 0 0 0 0,5.3e-4 0.28943779,0.28943779 0 0 0 0.006,0.0119 c 0.37829,0.92653 0.88138,1.70167 1.41697,2.2226 0.27017,0.26275 0.5489,0.46316 0.83768,0.57878 0.26736,0.10703 0.55385,0.13333 0.81855,0.047 a 5.0367096,5.0367096 0 0 0 0.87643,-1.76733 c 0.002,-0.72745 -0.17466,-1.59233 -0.53175,-2.4784 0,0 -5.3e-4,-5.3e-4 -5.3e-4,-5.3e-4 -0.37886,-0.93221 -0.88511,-1.71168 -1.42317,-2.23501 -0.27016,-0.26278 -0.54838,-0.46265 -0.83715,-0.57826 -0.16211,-0.0649 -0.33192,-0.10219 -0.4992,-0.10232 h -5.3e-4 z m 0.006,0.57723 c 0.0808,0 0.17267,0.0196 0.28009,0.0625 0.19095,0.0765 0.41781,0.23087 0.64905,0.45578 0.46042,0.4478 0.93677,1.16876 1.28985,2.03708 0.35072,0.87011 0.5103,1.71974 0.49092,2.36214 -0.01,0.32244 -0.0653,0.59152 -0.14934,0.77928 -0.084,0.18775 -0.18532,0.28751 -0.30231,0.33486 -0.11699,0.0473 -0.25914,0.0459 -0.4501,-0.0305 -0.19096,-0.0765 -0.41781,-0.23086 -0.64906,-0.45579 -0.46066,-0.44805 -0.93722,-1.16963 -1.29036,-2.03863 -0.35023,-0.86949 -0.50926,-1.7186 -0.48989,-2.36058 0.01,-0.32242 0.0653,-0.59154 0.14935,-0.77928 0.084,-0.18777 0.18479,-0.28752 0.30179,-0.33487 0.0512,-0.0207 0.10719,-0.0321 0.17001,-0.032 z" />
      <path
         inkscape:connector-curvature="0"
         d="m 113.42755,121.94408 -2.50425,2.10536 a 3.8131348,6.5516095 2.7845888 0 1 0.25934,0.96877 l 2.54461,-2.1392 a 2.1427238,0.78470589 85.9471 0 1 -0.2997,-0.93493 z"
         style="color:#000000;font-style:normal;font-variant:normal;font-weight:normal;font-stretch:normal;font-size:medium;line-height:normal;font-family:sans-serif;font-variant-ligatures:normal;font-variant-position:normal;font-variant-caps:normal;font-variant-numeric:normal;font-variant-alternates:normal;font-variant-east-asian:normal;font-feature-settings:normal;font-variation-settings:normal;text-indent:0;text-align:start;text-decoration:none;text-decoration-line:none;text-decoration-style:solid;text-decoration-color:#000000;letter-spacing:normal;word-spacing:normal;text-transform:none;writing-mode:lr-tb;direction:ltr;text-orientation:mixed;dominant-baseline:auto;baseline-shift:baseline;text-anchor:start;white-space:normal;shape-padding:0;shape-margin:0;inline-size:0;clip-rule:nonzero;display:inline;overflow:visible;visibility:visible;isolation:auto;mix-blend-mode:normal;color-interpolation:sRGB;color-interpolation-filters:linearRGB;solid-color:#000000;solid-opacity:1;vector-effect:none;fill:#222730;fill-opacity:1;fill-rule:nonzero;stroke:none;stroke-width:0.784635;stroke-linecap:butt;stroke-linejoin:miter;stroke-miterlimit:4;stroke-dasharray:none;stroke-dashoffset:0;stroke-opacity:1;color-rendering:auto;image-rendering:auto;shape-rendering:auto;text-rendering:auto;enable-background:accumulate;stop-color:#000000"
         id="path2569-7-4-0-7-9-8-8-4-7-0-9-6-3-6-8-2-5-0-3" />
      <path
         style="fill:#222730;fill-opacity:1;stroke:none;stroke-width:0.566177;stroke-linecap:round;stroke-linejoin:round;stroke-miterlimit:4;stroke-dasharray:none;stroke-opacity:1;paint-order:stroke fill markers"
         d="m 107.26696,123.62644 -0.8403,0.86772 a 1.3069378,1.3069378 0 0 0 -0.4495,1.53752 1.3069378,1.3069378 0 0 0 8.1e-4,0.002 1.3069378,1.3069378 0 0 0 1.39248,0.79209 l 1.23369,0.0399 c -0.36482,-0.35889 -0.70706,-0.88845 -0.96507,-1.52038 a 0.19947681,0.19947681 0 0 1 -0.004,-0.008 0.19947681,0.19947681 0 0 1 0,-8.1e-4 0.19947681,0.19947681 0 0 1 0,-8.1e-4 0.19947681,0.19947681 0 0 1 -0.003,-0.008 c -0.24371,-0.60752 -0.36623,-1.2013 -0.36484,-1.7002 z"
         id="path1758-2-5-8-7-9-02-8-1-3-49-9-7-1-8-2"
         inkscape:connector-curvature="0" />
      <path
         style="fill:#222730;fill-opacity:1;stroke:none;stroke-width:0.566177;stroke-linecap:round;stroke-linejoin:round;stroke-miterlimit:4;stroke-dasharray:none;stroke-opacity:1;paint-order:stroke fill markers"
         d="m 109.71099,121.10262 -1.98823,2.05321 c -0.0312,0.1124 -0.0513,0.24845 -0.056,0.40295 -0.0134,0.44245 0.0962,1.02781 0.33758,1.62704 0,0 0,0 0,0 0.24338,0.59891 0.57197,1.09607 0.88945,1.40486 0.14411,0.14013 0.28548,0.24018 0.40857,0.29709 l 0.30359,0.01 v 8e-4 l 0.18442,0.005 2.29901,0.0744 c -0.17074,-0.10845 -0.33794,-0.24476 -0.50207,-0.40438 -0.0366,-0.0356 -0.073,-0.0724 -0.10924,-0.11029 -0.005,-0.005 -0.0101,-0.0107 -0.0152,-0.0161 -0.0139,-0.0147 -0.0278,-0.0295 -0.0416,-0.0446 -0.004,-0.004 -0.007,-0.008 -0.0113,-0.0123 -0.0149,-0.0163 -0.0297,-0.0327 -0.0445,-0.0494 -0.003,-0.004 -0.007,-0.008 -0.0102,-0.0115 -0.0151,-0.0171 -0.0302,-0.0344 -0.0452,-0.0519 -0.003,-0.004 -0.006,-0.007 -0.009,-0.0106 -0.055,-0.0643 -0.10944,-0.1313 -0.16318,-0.20077 -0.36371,-0.46977 -0.69735,-1.05406 -0.96742,-1.7155 a 0.28943779,0.28943779 0 0 1 -0.006,-0.0117 v 0 l -0.001,-0.002 v 0 a 0.28943779,0.28943779 0 0 1 -0.004,-0.0123 c -0.28075,-0.69992 -0.45082,-1.38738 -0.50793,-2.00327 v -0.005 c -0.004,-0.0424 -0.007,-0.0844 -0.01,-0.1261 -8.9e-4,-0.006 -8.9e-4,-0.0114 -0.001,-0.017 -0.003,-0.0429 -0.005,-0.0854 -0.007,-0.12752 0,-0.004 0,-0.007 -8.9e-4,-0.0112 -0.002,-0.0434 -0.003,-0.0865 -0.003,-0.12903 -8.9e-4,-0.0554 0,-0.10997 0.002,-0.16372 0.007,-0.2287 0.0322,-0.44284 0.0794,-0.6394 z"
         id="path1223-5-0-8-5-0-0-3-7-0-1-5-5-1-3-6-2-1-6-7-1-4-1"
         inkscape:connector-curvature="0" />
      <rect
         style="fill:#222730;fill-opacity:1;stroke-width:4;paint-order:stroke fill markers;stop-color:#000000"
         id="rect1488"
         width="6.0657353"
         height="0.7661981"
         x="-14.924618"
         y="162.48657"
         transform="rotate(-45.811672)" />
      <path
         inkscape:connector-curvature="0"
         id="path1287-8-6-0-2-47-6-22-75-1-7-7-0-5-1-5-4-9-9-3-0-7-3"
         style="color:#000000;font-style:normal;font-variant:normal;font-weight:normal;font-stretch:normal;font-size:medium;line-height:normal;font-family:sans-serif;font-variant-ligatures:normal;font-variant-position:normal;font-variant-caps:normal;font-variant-numeric:normal;font-variant-alternates:normal;font-variant-east-asian:normal;font-feature-settings:normal;font-variation-settings:normal;text-indent:0;text-align:start;text-decoration:none;text-decoration-line:none;text-decoration-style:solid;text-decoration-color:#000000;letter-spacing:normal;word-spacing:normal;text-transform:none;writing-mode:lr-tb;direction:ltr;text-orientation:mixed;dominant-baseline:auto;baseline-shift:baseline;text-anchor:start;white-space:normal;shape-padding:0;shape-margin:0;inline-size:0;clip-rule:nonzero;display:inline;overflow:visible;visibility:visible;isolation:auto;mix-blend-mode:normal;color-interpolation:sRGB;color-interpolation-filters:linearRGB;solid-color:#000000;solid-opacity:1;vector-effect:none;fill:#f64c4c;fill-opacity:1;fill-rule:nonzero;stroke:none;stroke-width:0.578876;stroke-linecap:round;stroke-linejoin:round;stroke-miterlimit:4;stroke-dasharray:none;stroke-dashoffset:0;stroke-opacity:1;paint-order:stroke fill markers;color-rendering:auto;image-rendering:auto;shape-rendering:auto;text-rendering:auto;enable-background:accumulate;stop-color:#000000"
         d="m 110.69509,119.53673 c -0.13036,3e-5 -0.25942,0.0227 -0.38265,0.0725 -0.28166,0.11399 -0.48618,0.35126 -0.61326,0.63518 -0.12708,0.28392 -0.18815,0.62134 -0.19952,0.99805 -0.0225,0.7468 0.15522,1.65381 0.52781,2.58264 a 0.28943779,0.28943779 0 0 0 0.004,0.0123 v 0 a 0.28943779,0.28943779 0 0 0 0,8.9e-4 0.28943779,0.28943779 0 0 0 0,8.9e-4 v 0 a 0.28943779,0.28943779 0 0 0 0.006,0.0117 c 0.37829,0.92654 0.88135,1.70186 1.41694,2.22278 0.27016,0.26277 0.54876,0.46275 0.83754,0.57837 0.28875,0.11561 0.6007,0.14387 0.88234,0.0299 0.28168,-0.11399 0.48624,-0.35129 0.61332,-0.63521 0.12708,-0.28392 0.1882,-0.62139 0.19957,-0.99809 0.0226,-0.75025 -0.15579,-1.66198 -0.53192,-2.59531 -4e-5,0 0,0 0,0 0,-8.1e-4 0,-9.7e-4 -8.1e-4,-0.001 h -4e-5 c -0.37886,-0.93221 -0.88474,-1.7114 -1.4228,-2.23473 -0.27018,-0.26277 -0.54877,-0.46274 -0.83755,-0.57836 -0.16243,-0.065 -0.33226,-0.10242 -0.49988,-0.1024 z m 0.005,0.57728 c 0.0808,0 0.17274,0.0195 0.28016,0.0625 0.19097,0.0764 0.41777,0.23098 0.64901,0.45589 0.46041,0.44781 0.93685,1.16861 1.28993,2.03694 0,2e-5 4e-5,0 4e-5,0 0.35072,0.8701 0.5099,1.72011 0.49052,2.36252 -0.01,0.32244 -0.0652,0.5912 -0.14927,0.77896 -0.084,0.18775 -0.18513,0.28779 -0.30212,0.33514 -0.11699,0.0473 -0.25908,0.0457 -0.45005,-0.0307 -0.19095,-0.0765 -0.41781,-0.23098 -0.64904,-0.4559 -0.46067,-0.44806 -0.93742,-1.16941 -1.29055,-2.03841 -4e-5,0 0,0 0,0 -0.35024,-0.86948 -0.50919,-1.71878 -0.48981,-2.36075 0.01,-0.32244 0.0652,-0.59122 0.14926,-0.77897 0.084,-0.18775 0.185,-0.28776 0.30199,-0.3351 0.0512,-0.0207 0.10722,-0.0321 0.17004,-0.0319 z" />
      <path
         inkscape:connector-curvature="0"
         d="m 112.93842,121.58916 -2.50425,2.10536 a 3.8131348,6.5516095 2.7845888 0 1 0.25934,0.96878 l 2.54461,-2.1392 a 2.1427238,0.78470589 85.9471 0 1 -0.2997,-0.93494 z"
         style="color:#000000;font-style:normal;font-variant:normal;font-weight:normal;font-stretch:normal;font-size:medium;line-height:normal;font-family:sans-serif;font-variant-ligatures:normal;font-variant-position:normal;font-variant-caps:normal;font-variant-numeric:normal;font-variant-alternates:normal;font-variant-east-asian:normal;font-feature-settings:normal;font-variation-settings:normal;text-indent:0;text-align:start;text-decoration:none;text-decoration-line:none;text-decoration-style:solid;text-decoration-color:#000000;letter-spacing:normal;word-spacing:normal;text-transform:none;writing-mode:lr-tb;direction:ltr;text-orientation:mixed;dominant-baseline:auto;baseline-shift:baseline;text-anchor:start;white-space:normal;shape-padding:0;shape-margin:0;inline-size:0;clip-rule:nonzero;display:inline;overflow:visible;visibility:visible;isolation:auto;mix-blend-mode:normal;color-interpolation:sRGB;color-interpolation-filters:linearRGB;solid-color:#000000;solid-opacity:1;vector-effect:none;fill:#f64c4c;fill-opacity:1;fill-rule:nonzero;stroke:none;stroke-width:0.784635;stroke-linecap:butt;stroke-linejoin:miter;stroke-miterlimit:4;stroke-dasharray:none;stroke-dashoffset:0;stroke-opacity:1;color-rendering:auto;image-rendering:auto;shape-rendering:auto;text-rendering:auto;enable-background:accumulate;stop-color:#000000"
         id="path2569-7-4-0-7-9-8-8-6-8-9-5-2-8-5-4-9-52-3-2" />
      <path
         style="fill:#ffffff;fill-opacity:1;stroke:none;stroke-width:0.566177;stroke-linecap:round;stroke-linejoin:round;stroke-miterlimit:4;stroke-dasharray:none;stroke-opacity:1;paint-order:stroke fill markers"
         d="m 106.77784,123.27153 -0.84031,0.86772 a 1.3069378,1.3069378 0 0 0 -0.44949,1.53752 1.3069378,1.3069378 0 0 0 8.1e-4,0.002 1.3069378,1.3069378 0 0 0 1.39247,0.79209 l 1.23368,0.0399 c -0.36481,-0.35889 -0.70704,-0.88846 -0.96505,-1.52039 a 0.19947681,0.19947681 0 0 1 -0.004,-0.008 0.19947681,0.19947681 0 0 1 0,-8.1e-4 0.19947681,0.19947681 0 0 1 0,-8.1e-4 0.19947681,0.19947681 0 0 1 -0.003,-0.008 c -0.2437,-0.60752 -0.36623,-1.2013 -0.36483,-1.7002 z"
         id="path1758-2-5-8-3-9-8-6-1-57-8-7-5-3-0-4"
         inkscape:connector-curvature="0" />
      <g
         id="g2701">
        <path
           inkscape:connector-curvature="0"
           id="path2768-5-2-79-5-1-8-9-7-2-7-9-5-59-5-21-4-8"
           style="color:#000000;font-style:normal;font-variant:normal;font-weight:normal;font-stretch:normal;font-size:medium;line-height:normal;font-family:sans-serif;font-variant-ligatures:normal;font-variant-position:normal;font-variant-caps:normal;font-variant-numeric:normal;font-variant-alternates:normal;font-variant-east-asian:normal;font-feature-settings:normal;font-variation-settings:normal;text-indent:0;text-align:start;text-decoration:none;text-decoration-line:none;text-decoration-style:solid;text-decoration-color:#000000;letter-spacing:normal;word-spacing:normal;text-transform:none;writing-mode:lr-tb;direction:ltr;text-orientation:mixed;dominant-baseline:auto;baseline-shift:baseline;text-anchor:start;white-space:normal;shape-padding:0;shape-margin:0;inline-size:0;clip-rule:nonzero;display:inline;overflow:visible;visibility:visible;isolation:auto;mix-blend-mode:normal;color-interpolation:sRGB;color-interpolation-filters:linearRGB;solid-color:#000000;solid-opacity:1;vector-effect:none;fill:#ffffff;fill-opacity:1;fill-rule:nonzero;stroke:none;stroke-width:0.566351;stroke-linecap:butt;stroke-linejoin:miter;stroke-miterlimit:4;stroke-dasharray:none;stroke-dashoffset:0;stroke-opacity:1;paint-order:stroke fill markers;color-rendering:auto;image-rendering:auto;shape-rendering:auto;text-rendering:auto;enable-background:accumulate;stop-color:#000000"
           d="m 109.36066,125.96046 c -0.12968,0.15218 -0.3131,0.25685 -0.52154,0.2854 0.0381,0.38144 -0.17209,0.75077 -0.53997,0.89966 -0.44921,0.1818 -0.9581,-0.0359 -1.14421,-0.49582 -0.0529,-0.13076 -0.0734,-0.26557 -0.0654,-0.39577 h -0.56451 c -0.009,0.20218 0.0243,0.40917 0.10489,0.60821 0.29956,0.74018 1.14531,1.10637 1.8817,0.80835 0.67746,-0.27417 1.0301,-1.01662 0.84904,-1.71003 z" />
        <path
           transform="matrix(0.26458333,0,0,0.26458333,104.57645,118.93936)"
           d="M 18.082031 26.537109 C 17.591902 27.112278 16.899133 27.507329 16.111328 27.615234 C 16.255328 29.056897 15.460725 30.452891 14.070312 31.015625 C 13.746209 31.146793 13.414472 31.207166 13.083984 31.232422 L 14.857422 33.005859 C 14.862645 33.003764 14.867827 33.002113 14.873047 33 C 17.433526 31.963767 18.766353 29.157872 18.082031 26.537109 z "
           style="fill:#bac2d0;stroke-width:15.1181;paint-order:stroke fill markers;stop-color:#000000;fill-opacity:1"
           id="rect2673" />
      </g>
      <path
         inkscape:connector-curvature="0"
         id="path1223-5-0-8-5-0-0-3-7-0-1-9-5-9-4-1-07-3-8-6-7-2-8"
         style="fill:#ffffff;fill-opacity:1;stroke:none;stroke-width:0.566177;stroke-linecap:round;stroke-linejoin:round;stroke-miterlimit:4;stroke-dasharray:none;stroke-opacity:1;paint-order:stroke fill markers"
         d="m 109.22035,120.75512 -1.98747,2.04897 c -0.0307,0.11186 -0.0507,0.24676 -0.0553,0.39998 -0.0134,0.44244 0.0961,1.02753 0.33745,1.62677 0.24338,0.59891 0.57238,1.0963 0.88987,1.40509 0.14411,0.14014 0.28516,0.2402 0.40824,0.29713 l 0.30386,0.01 v 0.001 l 0.18449,0.005 2.29856,0.0744 c -0.17075,-0.10845 -0.33765,-0.24449 -0.50178,-0.40411 -0.0366,-0.0356 -0.0733,-0.0727 -0.10955,-0.11059 -0.005,-0.005 -0.01,-0.0107 -0.015,-0.016 -0.0139,-0.0147 -0.0275,-0.0293 -0.0413,-0.0444 -0.004,-0.004 -0.008,-0.008 -0.0114,-0.0124 -0.0148,-0.0163 -0.0297,-0.0325 -0.0444,-0.0491 -0.003,-0.004 -0.007,-0.008 -0.0103,-0.0119 -0.0151,-0.0171 -0.0305,-0.0343 -0.0455,-0.0517 -0.003,-0.004 -0.006,-0.007 -0.009,-0.0104 -0.055,-0.0643 -0.10955,-0.13155 -0.1633,-0.20102 -0.3637,-0.46977 -0.69731,-1.05369 -0.96738,-1.71514 a 0.28943779,0.28943779 0 0 1 -0.005,-0.0114 0.00726577,0.00494581 68.913093 0 1 -0.002,-0.003 0.28943779,0.28943779 0 0 1 -0.004,-0.0114 c -0.28075,-0.69992 -0.45086,-1.38761 -0.50798,-2.0035 v -0.005 c -0.004,-0.0424 -0.007,-0.0844 -0.01,-0.12609 -7.9e-4,-0.006 -10e-4,-0.0114 -0.002,-0.0171 -0.003,-0.0429 -0.005,-0.085 -0.007,-0.12713 0,-0.004 2.7e-4,-0.007 -5.3e-4,-0.0114 -0.002,-0.0434 -0.003,-0.0867 -0.003,-0.1292 -8e-4,-0.0554 -1.5e-4,-0.10954 0.002,-0.16329 0.007,-0.226 0.0319,-0.43788 0.078,-0.63252 z" />
    </g>
  </g>
</svg>
