<?xml version="1.0" encoding="UTF-8" standalone="no"?>
<svg
   xmlns:dc="http://purl.org/dc/elements/1.1/"
   xmlns:cc="http://creativecommons.org/ns#"
   xmlns:rdf="http://www.w3.org/1999/02/22-rdf-syntax-ns#"
   xmlns:svg="http://www.w3.org/2000/svg"
   xmlns="http://www.w3.org/2000/svg"
   xmlns:sodipodi="http://sodipodi.sourceforge.net/DTD/sodipodi-0.dtd"
   xmlns:inkscape="http://www.inkscape.org/namespaces/inkscape"
   sodipodi:docname="ad-free_logo_diagonal.svg"
   inkscape:version="1.0beta2 (2b71d25, 2019-12-03)"
   id="svg5394"
   version="1.1"
   viewBox="0 0 10.458794 10.459311"
   height="10.459311mm"
   width="10.458794mm">
  <defs
     id="defs5388" />
  <sodipodi:namedview
     inkscape:window-maximized="0"
     inkscape:window-y="0"
     inkscape:window-x="0"
     inkscape:window-height="1032"
     inkscape:window-width="1600"
     fit-margin-bottom="0"
     fit-margin-right="0"
     fit-margin-left="0"
     fit-margin-top="0"
     showgrid="false"
     inkscape:document-rotation="0"
     inkscape:current-layer="layer1"
     inkscape:document-units="mm"
     inkscape:cy="22.324012"
     inkscape:cx="22.262783"
     inkscape:zoom="11.2"
     inkscape:pageshadow="2"
     inkscape:pageopacity="0.0"
     borderopacity="1.0"
     bordercolor="#666666"
     pagecolor="#ffffff"
     id="base" />
  <metadata
     id="metadata5391">
    <rdf:RDF>
      <cc:Work
         rdf:about="">
        <dc:format>image/svg+xml</dc:format>
        <dc:type
           rdf:resource="http://purl.org/dc/dcmitype/StillImage" />
        <dc:title></dc:title>
      </cc:Work>
    </rdf:RDF>
  </metadata>
  <g
     transform="translate(-54.490843,-221.55606)"
     id="layer1"
     inkscape:groupmode="layer"
     inkscape:label="Layer 1">
    <g
       transform="translate(-45.589555,70.223596)"
       id="g2570">
      <g
         id="g2514">
        <g
           inkscape:export-ydpi="728.57355"
           inkscape:export-xdpi="728.57355"
           inkscape:export-filename="/Users/jb/g2625.png"
           id="g2625"
           transform="translate(11.251564,12.846935)">
          <g
             id="g2452"
             transform="translate(1.4874664e-4,-7.6742991e-5)">
            <path
               transform="scale(0.26458333)"
               d="m 355.47852,523.41016 a 19.764712,19.764712 0 0 0 -19.74805,19.76562 19.764712,19.764712 0 0 0 19.76562,19.76563 19.764712,19.764712 0 0 0 19.76368,-19.76563 19.764712,19.764712 0 0 0 -19.76368,-19.76562 19.764712,19.764712 0 0 0 -0.0176,0 z"
               style="font-variation-settings:normal;vector-effect:none;fill:#4f5d73;fill-opacity:1;stroke:none;stroke-width:1.93747;stroke-linecap:butt;stroke-linejoin:miter;stroke-miterlimit:4;stroke-dasharray:none;stroke-dashoffset:0;stroke-opacity:1;paint-order:stroke fill markers;stop-color:#000000"
               id="path2821-9-7-2-3-3-9-16-0-7-0-3-7"
               inkscape:connector-curvature="0" />
            <path
               transform="scale(0.26458333)"
               d="m 355.47656,523.41016 a 19.764712,19.764712 0 0 0 -13.98242,5.8164 l 27.95117,27.94922 a 19.764712,19.764712 0 0 0 5.81446,-14 19.764712,19.764712 0 0 0 -19.76368,-19.76562 19.764712,19.764712 0 0 0 -0.0176,0 z"
               style="font-variation-settings:normal;vector-effect:none;fill:#384352;fill-opacity:1;stroke:none;stroke-width:1.93747;stroke-linecap:butt;stroke-linejoin:miter;stroke-miterlimit:4;stroke-dasharray:none;stroke-dashoffset:0;stroke-opacity:1;paint-order:stroke fill markers;stop-color:#000000"
               id="path2821-9-7-2-3-3-9-7-1-4-0-5-3"
               inkscape:connector-curvature="0" />
          </g>
          <path
             inkscape:connector-curvature="0"
             d="m 97.053817,141.74314 -2.504247,2.10536 a 3.8131348,6.5516095 2.7845888 0 1 0.259339,0.96878 l 2.544612,-2.13921 a 2.1427238,0.78470589 85.9471 0 1 -0.299704,-0.93493 z"
             style="color:#000000;font-style:normal;font-variant:normal;font-weight:normal;font-stretch:normal;font-size:medium;line-height:normal;font-family:sans-serif;font-variant-ligatures:normal;font-variant-position:normal;font-variant-caps:normal;font-variant-numeric:normal;font-variant-alternates:normal;font-variant-east-asian:normal;font-feature-settings:normal;font-variation-settings:normal;text-indent:0;text-align:start;text-decoration:none;text-decoration-line:none;text-decoration-style:solid;text-decoration-color:#000000;letter-spacing:normal;word-spacing:normal;text-transform:none;writing-mode:lr-tb;direction:ltr;text-orientation:mixed;dominant-baseline:auto;baseline-shift:baseline;text-anchor:start;white-space:normal;shape-padding:0;shape-margin:0;inline-size:0;clip-rule:nonzero;display:inline;overflow:visible;visibility:visible;isolation:auto;mix-blend-mode:normal;color-interpolation:sRGB;color-interpolation-filters:linearRGB;solid-color:#000000;solid-opacity:1;vector-effect:none;fill:#3a4352;fill-opacity:1;fill-rule:nonzero;stroke:none;stroke-width:0.784635;stroke-linecap:butt;stroke-linejoin:miter;stroke-miterlimit:4;stroke-dasharray:none;stroke-dashoffset:0;stroke-opacity:1;color-rendering:auto;image-rendering:auto;shape-rendering:auto;text-rendering:auto;enable-background:accumulate;stop-color:#000000"
             id="path2569-7-4-0-7-0-3-1-9-3-1-1-1-1-7-3-7" />
          <g
             id="g2604">
            <g
               id="g2491">
              <path
                 inkscape:connector-curvature="0"
                 id="path1287-8-6-0-2-47-6-22-7-4-8-6-4-5-2-3-0-6-5-9"
                 style="color:#000000;font-style:normal;font-variant:normal;font-weight:normal;font-stretch:normal;font-size:medium;line-height:normal;font-family:sans-serif;font-variant-ligatures:normal;font-variant-position:normal;font-variant-caps:normal;font-variant-numeric:normal;font-variant-alternates:normal;font-variant-east-asian:normal;font-feature-settings:normal;font-variation-settings:normal;text-indent:0;text-align:start;text-decoration:none;text-decoration-line:none;text-decoration-style:solid;text-decoration-color:#000000;letter-spacing:normal;word-spacing:normal;text-transform:none;writing-mode:lr-tb;direction:ltr;text-orientation:mixed;dominant-baseline:auto;baseline-shift:baseline;text-anchor:start;white-space:normal;shape-padding:0;shape-margin:0;inline-size:0;clip-rule:nonzero;display:inline;overflow:visible;visibility:visible;isolation:auto;mix-blend-mode:normal;color-interpolation:sRGB;color-interpolation-filters:linearRGB;solid-color:#000000;solid-opacity:1;vector-effect:none;fill:#3a4352;fill-opacity:1;fill-rule:nonzero;stroke:none;stroke-width:0.578876;stroke-linecap:round;stroke-linejoin:round;stroke-miterlimit:4;stroke-dasharray:none;stroke-dashoffset:0;stroke-opacity:1;paint-order:stroke fill markers;color-rendering:auto;image-rendering:auto;shape-rendering:auto;text-rendering:auto;enable-background:accumulate;stop-color:#000000"
                 d="m 94.810495,139.69071 c -0.130366,3e-5 -0.259421,0.0227 -0.38265,0.0725 -0.281663,0.11399 -0.48618,0.35126 -0.613261,0.63518 -0.127089,0.28392 -0.188157,0.62134 -0.199525,0.99805 -0.02253,0.7468 0.155229,1.6538 0.527814,2.58264 a 0.28943779,0.28943779 0 0 0 0.0041,0.0123 v 0 a 0.28943779,0.28943779 0 0 0 0,8.9e-4 0.28943779,0.28943779 0 0 0 0,8.9e-4 v 0 a 0.28943779,0.28943779 0 0 0 0.0057,0.0117 c 0.37829,0.92654 0.881346,1.70185 1.416936,2.22278 0.270165,0.26277 0.548761,0.46274 0.837543,0.57836 0.288758,0.11562 0.600695,0.14387 0.88235,0.0299 0.28167,-0.11399 0.486227,-0.35129 0.613316,-0.63521 0.127081,-0.28392 0.188191,-0.62139 0.199558,-0.99809 0.02264,-0.75025 -0.155779,-1.66198 -0.531908,-2.59531 -4.1e-5,0 0,0 0,0 0,-8.1e-4 0,-9.7e-4 -8.09e-4,-0.002 h -4.1e-5 c -0.378872,-0.93221 -0.884744,-1.7114 -1.422801,-2.23473 -0.270165,-0.26277 -0.548761,-0.46275 -0.837535,-0.57837 -0.162438,-0.065 -0.33227,-0.10242 -0.499885,-0.10239 z m 0.0045,0.57728 c 0.08076,0 0.172745,0.0195 0.280165,0.0626 0.190966,0.0764 0.417773,0.23097 0.649014,0.45588 0.46041,0.44781 0.936848,1.16862 1.289927,2.03695 0,1e-5 4.1e-5,0 4.1e-5,0 0.350716,0.8701 0.509893,1.7201 0.490516,2.36251 -0.0097,0.32244 -0.06523,0.59121 -0.149266,0.77896 -0.08404,0.18775 -0.185124,0.2878 -0.302115,0.33515 -0.116992,0.0473 -0.259081,0.0457 -0.450047,-0.0307 -0.190965,-0.0765 -0.417813,-0.23098 -0.649053,-0.4559 -0.46067,-0.44806 -0.937415,-1.1694 -1.290551,-2.0384 -4e-5,0 0,0 0,0 -0.350231,-0.86949 -0.509173,-1.71878 -0.489804,-2.36076 0.0097,-0.32243 0.06522,-0.59121 0.149258,-0.77896 0.08405,-0.18775 0.185002,-0.28776 0.301994,-0.33511 0.05119,-0.0207 0.107226,-0.032 0.170042,-0.0318 z" />
              <g
                 id="g2470">
                <path
                   d="m 93.476061,146.11443 c -0.129687,0.15218 -0.313103,0.25686 -0.521544,0.2854 0.03812,0.38143 -0.17209,0.75078 -0.539975,0.89966 -0.449205,0.18179 -0.958095,-0.0359 -1.144206,-0.49582 -0.05291,-0.13075 -0.0734,-0.26558 -0.0654,-0.39578 h -0.564514 c -0.0086,0.20219 0.02435,0.40918 0.104897,0.60822 0.299558,0.74018 1.145306,1.10637 1.881699,0.80835 0.67746,-0.27417 1.030094,-1.01663 0.84904,-1.71003 z"
                   style="color:#000000;font-style:normal;font-variant:normal;font-weight:normal;font-stretch:normal;font-size:medium;line-height:normal;font-family:sans-serif;font-variant-ligatures:normal;font-variant-position:normal;font-variant-caps:normal;font-variant-numeric:normal;font-variant-alternates:normal;font-variant-east-asian:normal;font-feature-settings:normal;font-variation-settings:normal;text-indent:0;text-align:start;text-decoration:none;text-decoration-line:none;text-decoration-style:solid;text-decoration-color:#000000;letter-spacing:normal;word-spacing:normal;text-transform:none;writing-mode:lr-tb;direction:ltr;text-orientation:mixed;dominant-baseline:auto;baseline-shift:baseline;text-anchor:start;white-space:normal;shape-padding:0;shape-margin:0;inline-size:0;clip-rule:nonzero;display:inline;overflow:visible;visibility:visible;isolation:auto;mix-blend-mode:normal;color-interpolation:sRGB;color-interpolation-filters:linearRGB;solid-color:#000000;solid-opacity:1;vector-effect:none;fill:#3a4352;fill-opacity:1;fill-rule:nonzero;stroke:none;stroke-width:0.56635;stroke-linecap:butt;stroke-linejoin:miter;stroke-miterlimit:4;stroke-dasharray:none;stroke-dashoffset:0;stroke-opacity:1;paint-order:stroke fill markers;color-rendering:auto;image-rendering:auto;shape-rendering:auto;text-rendering:auto;enable-background:accumulate;stop-color:#000000"
                   id="path2768-5-2-79-3-0-1-4-6-74-9-1-9-5-81-3"
                   inkscape:connector-curvature="0" />
                <path
                   id="path1758-9-4-6-1-5-5-7-7-9-5-5-7"
                   d="m 90.893228,143.4255 -0.840294,0.86773 a 1.3069378,1.3069378 0 0 0 -0.449504,1.53751 1.3069378,1.3069378 0 0 0 8.09e-4,0.002 1.3069378,1.3069378 0 0 0 1.392485,0.79209 l 1.233681,0.0399 c -0.36481,-0.35888 -0.707048,-0.88845 -0.965052,-1.52038 a 0.19947681,0.19947681 0 0 1 -0.0039,-0.008 0.19947681,0.19947681 0 0 1 0,-8.1e-4 0.19947681,0.19947681 0 0 1 0,-8.1e-4 0.19947681,0.19947681 0 0 1 -0.0028,-0.008 c -0.2437,-0.60751 -0.366226,-1.20129 -0.364835,-1.70019 z"
                   style="fill:#3a4352;fill-opacity:1;stroke:none;stroke-width:0.566177;stroke-linecap:round;stroke-linejoin:round;stroke-miterlimit:4;stroke-dasharray:none;stroke-opacity:1;paint-order:stroke fill markers"
                   inkscape:connector-curvature="0" />
                <path
                   id="path1223-5-0-8-5-0-0-3-8-8-1-3-9-1-4-1-2-7-4-9"
                   d="m 93.337394,140.90144 v 4e-5 l -1.9884,2.05337 c -0.03116,0.1124 -0.05131,0.24846 -0.05598,0.40297 -0.01335,0.44244 0.09621,1.02779 0.337569,1.62703 -8e-6,0 0,0 0,0 0.243377,0.5989 0.571989,1.09606 0.889469,1.40486 0.144096,0.14014 0.285473,0.24017 0.408565,0.2971 l 0.397659,0.0129 c 0.01604,-0.0104 0.03157,-0.0226 0.04662,-0.0368 v 0.0383 l 2.342732,0.0758 c -0.170722,-0.10845 -0.337933,-0.24476 -0.502053,-0.40439 -0.03657,-0.0356 -0.07301,-0.0724 -0.109249,-0.11029 -0.0051,-0.005 -0.01015,-0.0107 -0.01522,-0.0161 -0.01391,-0.0147 -0.02776,-0.0295 -0.0416,-0.0446 -0.0038,-0.004 -0.0075,-0.008 -0.01129,-0.0123 -0.01486,-0.0163 -0.02973,-0.0327 -0.04453,-0.0493 -0.0034,-0.004 -0.0068,-0.008 -0.0102,-0.0115 -0.0151,-0.0171 -0.03018,-0.0344 -0.04519,-0.0518 -0.0031,-0.004 -0.0061,-0.007 -0.0092,-0.0106 -0.05498,-0.0643 -0.109411,-0.1313 -0.163182,-0.20077 -0.363686,-0.46978 -0.697339,-1.05406 -0.967399,-1.7155 a 0.28943779,0.28943779 0 0 1 -0.0057,-0.0117 l 0.305635,-0.12367 -8.09e-4,-0.002 -0.306008,0.12384 a 0.28943779,0.28943779 0 0 1 -0.0041,-0.0123 c -0.280756,-0.69992 -0.450823,-1.38739 -0.507951,-2.00329 v -0.005 c -0.0039,-0.0424 -0.0072,-0.0844 -0.01,-0.1261 -8.1e-4,-0.006 -8.1e-4,-0.0114 -0.0012,-0.017 -0.0028,-0.0429 -0.0049,-0.0854 -0.0066,-0.12753 0,-0.004 9e-6,-0.007 -8.09e-4,-0.0112 -0.0015,-0.0434 -0.0026,-0.0865 -0.003,-0.12903 -8.09e-4,-0.0554 1.6e-5,-0.10997 0.0018,-0.16372 0.0069,-0.22878 0.03222,-0.44299 0.07943,-0.63961 z"
                   style="fill:#3a4352;fill-opacity:1;stroke:none;stroke-width:0.566177;stroke-linecap:round;stroke-linejoin:round;stroke-miterlimit:4;stroke-dasharray:none;stroke-opacity:1;paint-order:stroke fill markers"
                   inkscape:connector-curvature="0" />
                <path
                   inkscape:connector-curvature="0"
                   d="m 94.810553,139.6907 c -0.130367,0 -0.259428,0.0227 -0.382645,0.0725 -0.281669,0.11399 -0.486189,0.35126 -0.61328,0.63518 -0.127092,0.28392 -0.188144,0.62134 -0.199511,0.99804 -0.02038,0.67502 0.123453,1.48104 0.426336,2.31565 l 1.261154,1.26115 c -0.226098,-0.34993 -0.438645,-0.75472 -0.61891,-1.19831 0,-2.4e-4 0,-2.6e-4 0,-3.4e-4 -0.350235,-0.86949 -0.50918,-1.71878 -0.489807,-2.36076 0.0097,-0.32244 0.06523,-0.59121 0.149269,-0.77896 0.08404,-0.18775 0.184997,-0.28776 0.301984,-0.33511 0.05118,-0.0207 0.107226,-0.032 0.170033,-0.0319 v 0 c 0.08075,2.4e-4 0.172731,0.0195 0.28015,0.0625 0.190969,0.0765 0.417773,0.23098 0.649029,0.45589 0.460415,0.44781 0.936843,1.16861 1.289925,2.03694 0,0 0,0 0,0 0.350705,0.87011 0.509885,1.72011 0.490512,2.36252 -0.0097,0.32243 -0.06523,0.59121 -0.149268,0.77896 -0.08404,0.18775 -0.185125,0.2878 -0.302113,0.33515 -0.117009,0.0473 -0.259085,0.0457 -0.450054,-0.0307 -0.01415,-0.006 -0.02856,-0.0119 -0.04309,-0.0184 l 0.617348,0.61737 c 0.03095,-0.009 0.06167,-0.0194 0.09198,-0.0316 0.281669,-0.11399 0.486232,-0.3513 0.613323,-0.63522 0.12707,-0.28392 0.188186,-0.62138 0.199553,-0.99809 0.02263,-0.75025 -0.155776,-1.66198 -0.531913,-2.59531 0,0 0,-2.6e-4 0,-3.4e-4 0,-4.9e-4 0,-0.001 -8.56e-4,-0.001 v 0 c -0.378877,-0.93221 -0.884782,-1.71141 -1.422839,-2.23474 -0.270152,-0.26277 -0.54876,-0.46274 -0.837537,-0.57836 -0.16207,-0.0649 -0.331482,-0.10221 -0.498733,-0.10235 z m -1.47323,1.21073 c 0,0 0,2.2e-4 0,2.2e-4 z m 0,2.2e-4 -1.036212,1.07008 1.156539,1.15655 c -0.09006,-0.34965 -0.150318,-0.68843 -0.179945,-1.00783 v -0.005 c -0.0039,-0.0424 -0.0072,-0.0844 -0.01,-0.1261 -8.56e-4,-0.006 -8.56e-4,-0.0114 -0.0013,-0.017 -0.0028,-0.0429 -0.0049,-0.0854 -0.0066,-0.12752 0,-0.004 0,-0.007 -8.56e-4,-0.0112 -0.0015,-0.0434 -0.0026,-0.0865 -0.003,-0.12903 -8.56e-4,-0.0554 0,-0.10996 0.0017,-0.16372 0.0069,-0.2287 0.03222,-0.44284 0.0794,-0.6394 z"
                   style="fill:#222730;fill-opacity:1;stroke:none;stroke-width:0.566177;stroke-linecap:round;stroke-linejoin:round;stroke-miterlimit:4;stroke-dasharray:none;stroke-opacity:1;paint-order:stroke fill markers"
                   id="path1223-5-0-8-5-0-0-3-8-8-1-3-9-1-9-0-9-5-3" />
              </g>
            </g>
            <g
               id="g2573">
              <path
                 d="m 95.310162,139.50207 c -0.130366,2e-5 -0.259421,0.0227 -0.382651,0.0725 -0.281662,0.11399 -0.486179,0.35125 -0.61326,0.63517 -0.127089,0.28392 -0.188158,0.62134 -0.199525,0.99805 -0.02253,0.7468 0.155228,1.65381 0.527814,2.58264 a 0.28943779,0.28943779 0 0 0 0.0041,0.0123 v 0 a 0.28943779,0.28943779 0 0 0 0,8.9e-4 0.28943779,0.28943779 0 0 0 0,8.9e-4 v 0 a 0.28943779,0.28943779 0 0 0 0.0057,0.0117 c 0.378289,0.92653 0.881346,1.70186 1.416935,2.22279 0.270166,0.26276 0.548762,0.46274 0.837544,0.57836 0.288757,0.1156 0.600695,0.14387 0.882349,0.0299 0.28167,-0.114 0.486228,-0.35131 0.613317,-0.63522 0.127081,-0.28392 0.18819,-0.62138 0.199558,-0.99808 0.02264,-0.75026 -0.155779,-1.66199 -0.531908,-2.59532 -4.1e-5,0 0,0 0,0 0,-8.1e-4 0,-9.7e-4 -8.1e-4,-0.001 h -4e-5 c -0.378864,-0.93221 -0.884736,-1.7114 -1.422793,-2.23473 -0.270166,-0.26278 -0.548761,-0.46275 -0.837535,-0.57836 -0.162438,-0.065 -0.33227,-0.10242 -0.499885,-0.1024 z m 0.0045,0.57726 c 0.08076,0 0.172745,0.0196 0.280165,0.0625 0.190957,0.0765 0.417764,0.23099 0.649005,0.4559 0.460411,0.4478 0.936849,1.16861 1.289928,2.03694 0,2e-5 4e-5,0 4e-5,0 0.350717,0.8701 0.509894,1.72011 0.490516,2.36251 -0.0097,0.32244 -0.06523,0.59121 -0.149265,0.77896 -0.08404,0.18775 -0.185124,0.2878 -0.302116,0.33515 -0.116992,0.0473 -0.259081,0.0457 -0.450046,-0.0307 -0.190965,-0.0765 -0.417813,-0.23098 -0.649054,-0.4559 -0.460669,-0.44805 -0.937415,-1.16941 -1.29055,-2.0384 -4.1e-5,0 0,0 0,0 -0.350231,-0.86949 -0.509174,-1.71878 -0.489804,-2.36076 0.0097,-0.32243 0.06522,-0.59121 0.149257,-0.77895 0.08405,-0.18776 0.185002,-0.28777 0.301994,-0.33511 0.05119,-0.0207 0.107227,-0.032 0.170043,-0.0319 z"
                 style="color:#000000;font-style:normal;font-variant:normal;font-weight:normal;font-stretch:normal;font-size:medium;line-height:normal;font-family:sans-serif;font-variant-ligatures:normal;font-variant-position:normal;font-variant-caps:normal;font-variant-numeric:normal;font-variant-alternates:normal;font-variant-east-asian:normal;font-feature-settings:normal;font-variation-settings:normal;text-indent:0;text-align:start;text-decoration:none;text-decoration-line:none;text-decoration-style:solid;text-decoration-color:#000000;letter-spacing:normal;word-spacing:normal;text-transform:none;writing-mode:lr-tb;direction:ltr;text-orientation:mixed;dominant-baseline:auto;baseline-shift:baseline;text-anchor:start;white-space:normal;shape-padding:0;shape-margin:0;inline-size:0;clip-rule:nonzero;display:inline;overflow:visible;visibility:visible;isolation:auto;mix-blend-mode:normal;color-interpolation:sRGB;color-interpolation-filters:linearRGB;solid-color:#000000;solid-opacity:1;vector-effect:none;fill:#f64c4c;fill-opacity:1;fill-rule:nonzero;stroke:none;stroke-width:0.578876;stroke-linecap:round;stroke-linejoin:round;stroke-miterlimit:4;stroke-dasharray:none;stroke-dashoffset:0;stroke-opacity:1;paint-order:stroke fill markers;color-rendering:auto;image-rendering:auto;shape-rendering:auto;text-rendering:auto;enable-background:accumulate;stop-color:#000000"
                 id="path1287-8-6-0-2-47-6-22-75-1-7-5-4-2-0-9-5-3-3"
                 inkscape:connector-curvature="0" />
              <path
                 id="path2569-7-4-0-7-9-8-8-4-7-0-9-6-3-6-8"
                 style="color:#000000;font-style:normal;font-variant:normal;font-weight:normal;font-stretch:normal;font-size:medium;line-height:normal;font-family:sans-serif;font-variant-ligatures:normal;font-variant-position:normal;font-variant-caps:normal;font-variant-numeric:normal;font-variant-alternates:normal;font-variant-east-asian:normal;font-feature-settings:normal;font-variation-settings:normal;text-indent:0;text-align:start;text-decoration:none;text-decoration-line:none;text-decoration-style:solid;text-decoration-color:#000000;letter-spacing:normal;word-spacing:normal;text-transform:none;writing-mode:lr-tb;direction:ltr;text-orientation:mixed;dominant-baseline:auto;baseline-shift:baseline;text-anchor:start;white-space:normal;shape-padding:0;shape-margin:0;inline-size:0;clip-rule:nonzero;display:inline;overflow:visible;visibility:visible;isolation:auto;mix-blend-mode:normal;color-interpolation:sRGB;color-interpolation-filters:linearRGB;solid-color:#000000;solid-opacity:1;vector-effect:none;fill:#f64c4c;fill-opacity:1;fill-rule:nonzero;stroke:none;stroke-width:0.784635;stroke-linecap:butt;stroke-linejoin:miter;stroke-miterlimit:4;stroke-dasharray:none;stroke-dashoffset:0;stroke-opacity:1;color-rendering:auto;image-rendering:auto;shape-rendering:auto;text-rendering:auto;enable-background:accumulate;stop-color:#000000"
                 d="m 97.553484,141.5545 -2.504248,2.10536 a 3.8131348,6.5516095 2.7845888 0 1 0.25934,0.96877 l 2.544612,-2.1392 a 2.1427238,0.78470589 85.9471 0 1 -0.299704,-0.93493 z"
                 inkscape:connector-curvature="0" />
              <path
                 d="m 93.975719,145.93383 c -0.129678,0.15218 -0.313103,0.25685 -0.521536,0.28539 0.03812,0.38144 -0.172089,0.75078 -0.539974,0.89966 -0.449205,0.1818 -0.958095,-0.0359 -1.144206,-0.49582 -0.05291,-0.13075 -0.0734,-0.26557 -0.0654,-0.39577 h -0.564514 c -0.0086,0.20218 0.02435,0.40918 0.104896,0.60821 0.299551,0.74018 1.145306,1.10637 1.881699,0.80835 0.67746,-0.27417 1.030094,-1.01662 0.849032,-1.71002 z"
                 style="color:#000000;font-style:normal;font-variant:normal;font-weight:normal;font-stretch:normal;font-size:medium;line-height:normal;font-family:sans-serif;font-variant-ligatures:normal;font-variant-position:normal;font-variant-caps:normal;font-variant-numeric:normal;font-variant-alternates:normal;font-variant-east-asian:normal;font-feature-settings:normal;font-variation-settings:normal;text-indent:0;text-align:start;text-decoration:none;text-decoration-line:none;text-decoration-style:solid;text-decoration-color:#000000;letter-spacing:normal;word-spacing:normal;text-transform:none;writing-mode:lr-tb;direction:ltr;text-orientation:mixed;dominant-baseline:auto;baseline-shift:baseline;text-anchor:start;white-space:normal;shape-padding:0;shape-margin:0;inline-size:0;clip-rule:nonzero;display:inline;overflow:visible;visibility:visible;isolation:auto;mix-blend-mode:normal;color-interpolation:sRGB;color-interpolation-filters:linearRGB;solid-color:#000000;solid-opacity:1;vector-effect:none;fill:#ffffff;fill-opacity:1;fill-rule:nonzero;stroke:none;stroke-width:0.56635;stroke-linecap:butt;stroke-linejoin:miter;stroke-miterlimit:4;stroke-dasharray:none;stroke-dashoffset:0;stroke-opacity:1;paint-order:stroke fill markers;color-rendering:auto;image-rendering:auto;shape-rendering:auto;text-rendering:auto;enable-background:accumulate;stop-color:#000000"
                 id="path2768-5-2-79-5-1-8-9-7-2-7-9-5-59-5"
                 inkscape:connector-curvature="0" />
              <path
                 inkscape:connector-curvature="0"
                 id="rect5125-0-6-5-8"
                 style="fill:#bac2d0;fill-opacity:1;stroke:none;stroke-width:0.0171523;stroke-miterlimit:4;stroke-dasharray:none;paint-order:stroke fill markers;stop-color:#000000"
                 d="m 91.140092,146.22728 c -0.0086,0.20218 0.02436,0.40918 0.104888,0.60821 0.03158,0.078 0.06953,0.15154 0.112429,0.22088 l 0.587014,-0.15729 c -0.07197,-0.0781 -0.131758,-0.17061 -0.17442,-0.27603 -0.05292,-0.13075 -0.07341,-0.26557 -0.0654,-0.39577 z m 2.297748,0.27155 c 0,3e-5 0,5e-5 0,8e-5 v 0 z" />
              <path
                 inkscape:connector-curvature="0"
                 id="path1758-2-5-8-7-9-02-8-1-3-49-9"
                 d="m 91.392895,143.23686 -0.840302,0.86772 a 1.3069378,1.3069378 0 0 0 -0.449497,1.53752 1.3069378,1.3069378 0 0 0 8.1e-4,0.002 1.3069378,1.3069378 0 0 0 1.392477,0.79209 l 1.233689,0.0399 c -0.364811,-0.35889 -0.707056,-0.88845 -0.965061,-1.52038 a 0.19947681,0.19947681 0 0 1 -0.0038,-0.008 0.19947681,0.19947681 0 0 1 0,-8.1e-4 0.19947681,0.19947681 0 0 1 0,-8.1e-4 0.19947681,0.19947681 0 0 1 -0.0028,-0.008 c -0.243701,-0.60752 -0.366227,-1.2013 -0.364835,-1.7002 z"
                 style="fill:#ffffff;fill-opacity:1;stroke:none;stroke-width:0.566177;stroke-linecap:round;stroke-linejoin:round;stroke-miterlimit:4;stroke-dasharray:none;stroke-opacity:1;paint-order:stroke fill markers" />
              <path
                 inkscape:connector-curvature="0"
                 id="path1223-5-0-8-5-0-0-3-7-0-1-5-5-1-3-6-2-1-6"
                 d="m 93.836923,140.71304 -1.98823,2.05321 c -0.03117,0.1124 -0.05131,0.24845 -0.05598,0.40295 -0.01336,0.44245 0.09621,1.0278 0.337585,1.62704 0,0 0,0 0,0 0.243377,0.59891 0.571965,1.09607 0.889445,1.40486 0.144112,0.14013 0.285481,0.24017 0.408573,0.29709 l 0.303588,0.01 v 8e-4 l 0.18442,0.005 2.29901,0.0744 c -0.170738,-0.10845 -0.337941,-0.24476 -0.502069,-0.40438 -0.03656,-0.0356 -0.07302,-0.0724 -0.109241,-0.11029 -0.0051,-0.005 -0.01015,-0.0107 -0.01522,-0.0161 -0.01392,-0.0147 -0.02776,-0.0295 -0.04159,-0.0446 -0.0038,-0.004 -0.0075,-0.008 -0.0113,-0.0123 -0.01485,-0.0163 -0.02973,-0.0327 -0.04452,-0.0494 -0.0034,-0.004 -0.0068,-0.008 -0.01019,-0.0115 -0.01511,-0.0171 -0.03019,-0.0344 -0.04521,-0.0519 -0.0031,-0.004 -0.0061,-0.007 -0.0091,-0.0106 -0.05499,-0.0643 -0.109435,-0.1313 -0.163182,-0.20077 -0.363702,-0.46977 -0.697347,-1.05406 -0.967415,-1.7155 a 0.28943779,0.28943779 0 0 1 -0.0057,-0.0117 v 0 l -0.0013,-0.002 v 0 a 0.28943779,0.28943779 0 0 1 -0.0041,-0.0123 c -0.280748,-0.69992 -0.450823,-1.38738 -0.507936,-2.00327 v -0.005 c -0.0039,-0.0424 -0.0072,-0.0844 -0.01,-0.1261 -8.9e-4,-0.006 -8.9e-4,-0.0114 -0.0013,-0.017 -0.0028,-0.0429 -0.0049,-0.0854 -0.0066,-0.12752 0,-0.004 0,-0.007 -8.9e-4,-0.0112 -0.0015,-0.0434 -0.0026,-0.0865 -0.003,-0.12903 -8.9e-4,-0.0554 0,-0.10997 0.0017,-0.16372 0.0069,-0.2287 0.03222,-0.44284 0.07939,-0.6394 z"
                 style="fill:#ffffff;fill-opacity:1;stroke:none;stroke-width:0.566177;stroke-linecap:round;stroke-linejoin:round;stroke-miterlimit:4;stroke-dasharray:none;stroke-opacity:1;paint-order:stroke fill markers" />
            </g>
          </g>
        </g>
      </g>
    </g>
  </g>
</svg>
