<?xml version="1.0" encoding="UTF-8" standalone="no"?>
<svg
   xmlns:dc="http://purl.org/dc/elements/1.1/"
   xmlns:cc="http://creativecommons.org/ns#"
   xmlns:rdf="http://www.w3.org/1999/02/22-rdf-syntax-ns#"
   xmlns:svg="http://www.w3.org/2000/svg"
   xmlns="http://www.w3.org/2000/svg"
   xmlns:sodipodi="http://sodipodi.sourceforge.net/DTD/sodipodi-0.dtd"
   xmlns:inkscape="http://www.inkscape.org/namespaces/inkscape"
   sodipodi:docname="ad-free_logo_diagonal_darkred.svg"
   inkscape:version="1.0beta2 (2b71d25, 2019-12-03)"
   id="svg6744"
   version="1.1"
   viewBox="0 0 10.4588 10.459311"
   height="10.459311mm"
   width="10.4588mm">
  <defs
     id="defs6738" />
  <sodipodi:namedview
     inkscape:window-maximized="0"
     inkscape:window-y="0"
     inkscape:window-x="0"
     inkscape:window-height="1032"
     inkscape:window-width="1600"
     fit-margin-bottom="0"
     fit-margin-right="0"
     fit-margin-left="0"
     fit-margin-top="0"
     showgrid="false"
     inkscape:document-rotation="0"
     inkscape:current-layer="layer1"
     inkscape:document-units="mm"
     inkscape:cy="39.433713"
     inkscape:cx="30.799299"
     inkscape:zoom="5.6"
     inkscape:pageshadow="2"
     inkscape:pageopacity="0.0"
     borderopacity="1.0"
     bordercolor="#666666"
     pagecolor="#ffffff"
     id="base" />
  <metadata
     id="metadata6741">
    <rdf:RDF>
      <cc:Work
         rdf:about="">
        <dc:format>image/svg+xml</dc:format>
        <dc:type
           rdf:resource="http://purl.org/dc/dcmitype/StillImage" />
        <dc:title></dc:title>
      </cc:Work>
    </rdf:RDF>
  </metadata>
  <g
     transform="translate(-31.812267,-120.25844)"
     id="layer1"
     inkscape:groupmode="layer"
     inkscape:label="Layer 1">
    <g
       transform="translate(-68.924553,-44.376929)"
       id="g2547">
      <g
         id="g2492">
        <path
           inkscape:connector-curvature="0"
           id="path2821-9-7-2-3-3-9-16-0-7-0-3-7-3-8"
           style="font-variation-settings:normal;vector-effect:none;fill:#4f5d73;fill-opacity:1;stroke:none;stroke-width:0.512622;stroke-linecap:butt;stroke-linejoin:miter;stroke-miterlimit:4;stroke-dasharray:none;stroke-dashoffset:0;stroke-opacity:1;paint-order:stroke fill markers;stop-color:#000000"
           d="m 105.96183,164.63537 a 5.2294133,5.2294133 0 0 0 -5.22501,5.22966 5.2294133,5.2294133 0 0 0 5.22966,5.22965 5.2294133,5.2294133 0 0 0 5.22914,-5.22965 5.2294133,5.2294133 0 0 0 -5.22914,-5.22966 5.2294133,5.2294133 0 0 0 -0.005,0 z" />
        <path
           inkscape:connector-curvature="0"
           id="path2821-9-7-2-3-3-9-7-1-4-0-5-3-0-2"
           style="font-variation-settings:normal;vector-effect:none;fill:#384352;fill-opacity:1;stroke:none;stroke-width:0.512622;stroke-linecap:butt;stroke-linejoin:miter;stroke-miterlimit:4;stroke-dasharray:none;stroke-dashoffset:0;stroke-opacity:1;paint-order:stroke fill markers;stop-color:#000000"
           d="m 105.96131,164.63537 a 5.2294133,5.2294133 0 0 0 -3.69952,1.53892 l 7.39542,7.3949 a 5.2294133,5.2294133 0 0 0 1.53841,-3.70416 5.2294133,5.2294133 0 0 0 -5.22914,-5.22966 5.2294133,5.2294133 0 0 0 -0.005,0 z" />
        <path
           inkscape:connector-curvature="0"
           d="m 108.96181,167.89298 -2.50425,2.10536 a 3.8131348,6.5516095 2.7845888 0 1 0.25934,0.96878 l 2.54461,-2.13921 a 2.1427238,0.78470589 85.9471 0 1 -0.2997,-0.93493 z"
           style="color:#000000;font-style:normal;font-variant:normal;font-weight:normal;font-stretch:normal;font-size:medium;line-height:normal;font-family:sans-serif;font-variant-ligatures:normal;font-variant-position:normal;font-variant-caps:normal;font-variant-numeric:normal;font-variant-alternates:normal;font-variant-east-asian:normal;font-feature-settings:normal;font-variation-settings:normal;text-indent:0;text-align:start;text-decoration:none;text-decoration-line:none;text-decoration-style:solid;text-decoration-color:#000000;letter-spacing:normal;word-spacing:normal;text-transform:none;writing-mode:lr-tb;direction:ltr;text-orientation:mixed;dominant-baseline:auto;baseline-shift:baseline;text-anchor:start;white-space:normal;shape-padding:0;shape-margin:0;inline-size:0;clip-rule:nonzero;display:inline;overflow:visible;visibility:visible;isolation:auto;mix-blend-mode:normal;color-interpolation:sRGB;color-interpolation-filters:linearRGB;solid-color:#000000;solid-opacity:1;vector-effect:none;fill:#3a4352;fill-opacity:1;fill-rule:nonzero;stroke:none;stroke-width:0.784635;stroke-linecap:butt;stroke-linejoin:miter;stroke-miterlimit:4;stroke-dasharray:none;stroke-dashoffset:0;stroke-opacity:1;color-rendering:auto;image-rendering:auto;shape-rendering:auto;text-rendering:auto;enable-background:accumulate;stop-color:#000000"
           id="path2569-7-4-0-7-0-3-1-9-3-1-1-1-1-7-3-7-1-9" />
        <path
           inkscape:connector-curvature="0"
           id="path1287-8-6-0-2-47-6-22-7-4-8-6-4-5-2-3-0-6-5-9-5-8"
           style="color:#000000;font-style:normal;font-variant:normal;font-weight:normal;font-stretch:normal;font-size:medium;line-height:normal;font-family:sans-serif;font-variant-ligatures:normal;font-variant-position:normal;font-variant-caps:normal;font-variant-numeric:normal;font-variant-alternates:normal;font-variant-east-asian:normal;font-feature-settings:normal;font-variation-settings:normal;text-indent:0;text-align:start;text-decoration:none;text-decoration-line:none;text-decoration-style:solid;text-decoration-color:#000000;letter-spacing:normal;word-spacing:normal;text-transform:none;writing-mode:lr-tb;direction:ltr;text-orientation:mixed;dominant-baseline:auto;baseline-shift:baseline;text-anchor:start;white-space:normal;shape-padding:0;shape-margin:0;inline-size:0;clip-rule:nonzero;display:inline;overflow:visible;visibility:visible;isolation:auto;mix-blend-mode:normal;color-interpolation:sRGB;color-interpolation-filters:linearRGB;solid-color:#000000;solid-opacity:1;vector-effect:none;fill:#3a4352;fill-opacity:1;fill-rule:nonzero;stroke:none;stroke-width:0.578876;stroke-linecap:round;stroke-linejoin:round;stroke-miterlimit:4;stroke-dasharray:none;stroke-dashoffset:0;stroke-opacity:1;paint-order:stroke fill markers;color-rendering:auto;image-rendering:auto;shape-rendering:auto;text-rendering:auto;enable-background:accumulate;stop-color:#000000"
           d="m 106.71849,165.84055 c -0.13037,3e-5 -0.25942,0.0227 -0.38265,0.0725 -0.28167,0.11399 -0.48618,0.35126 -0.61326,0.63518 -0.12709,0.28392 -0.18816,0.62134 -0.19953,0.99805 -0.0225,0.7468 0.15523,1.6538 0.52782,2.58264 a 0.28943779,0.28943779 0 0 0 0.004,0.0123 v 0 a 0.28943779,0.28943779 0 0 0 0,8.9e-4 0.28943779,0.28943779 0 0 0 0,8.9e-4 v 0 a 0.28943779,0.28943779 0 0 0 0.006,0.0117 c 0.37829,0.92654 0.88134,1.70185 1.41693,2.22278 0.27017,0.26277 0.54876,0.46274 0.83754,0.57836 0.28876,0.11562 0.6007,0.14387 0.88235,0.0299 0.28167,-0.11399 0.48623,-0.35129 0.61332,-0.63521 0.12708,-0.28392 0.18819,-0.62139 0.19956,-0.99809 0.0226,-0.75025 -0.15578,-1.66198 -0.53191,-2.59531 -4e-5,0 0,0 0,0 0,-8.1e-4 0,-9.7e-4 -8.1e-4,-0.002 h -4e-5 c -0.37887,-0.93221 -0.88474,-1.7114 -1.4228,-2.23473 -0.27017,-0.26277 -0.54876,-0.46275 -0.83754,-0.57837 -0.16243,-0.065 -0.33227,-0.10242 -0.49988,-0.10239 z m 0.004,0.57728 c 0.0808,0 0.17274,0.0195 0.28016,0.0626 0.19097,0.0764 0.41777,0.23097 0.64902,0.45588 0.46041,0.44781 0.93684,1.16862 1.28992,2.03695 0,1e-5 4e-5,0 4e-5,0 0.35072,0.8701 0.5099,1.7201 0.49052,2.36251 -0.01,0.32244 -0.0652,0.59121 -0.14927,0.77896 -0.084,0.18775 -0.18512,0.2878 -0.30211,0.33515 -0.11699,0.0473 -0.25908,0.0457 -0.45005,-0.0307 -0.19096,-0.0765 -0.41781,-0.23098 -0.64905,-0.4559 -0.46067,-0.44806 -0.93742,-1.1694 -1.29055,-2.0384 -4e-5,0 0,0 0,0 -0.35023,-0.86949 -0.50918,-1.71878 -0.48981,-2.36076 0.01,-0.32243 0.0652,-0.59121 0.14926,-0.77896 0.0841,-0.18775 0.185,-0.28776 0.302,-0.33511 0.0512,-0.0207 0.10722,-0.032 0.17004,-0.0318 z" />
        <path
           inkscape:connector-curvature="0"
           id="path2768-5-2-79-3-0-1-4-6-74-9-1-9-5-81-3-3-0"
           style="color:#000000;font-style:normal;font-variant:normal;font-weight:normal;font-stretch:normal;font-size:medium;line-height:normal;font-family:sans-serif;font-variant-ligatures:normal;font-variant-position:normal;font-variant-caps:normal;font-variant-numeric:normal;font-variant-alternates:normal;font-variant-east-asian:normal;font-feature-settings:normal;font-variation-settings:normal;text-indent:0;text-align:start;text-decoration:none;text-decoration-line:none;text-decoration-style:solid;text-decoration-color:#000000;letter-spacing:normal;word-spacing:normal;text-transform:none;writing-mode:lr-tb;direction:ltr;text-orientation:mixed;dominant-baseline:auto;baseline-shift:baseline;text-anchor:start;white-space:normal;shape-padding:0;shape-margin:0;inline-size:0;clip-rule:nonzero;display:inline;overflow:visible;visibility:visible;isolation:auto;mix-blend-mode:normal;color-interpolation:sRGB;color-interpolation-filters:linearRGB;solid-color:#000000;solid-opacity:1;vector-effect:none;fill:#3a4352;fill-opacity:1;fill-rule:nonzero;stroke:none;stroke-width:0.56635;stroke-linecap:butt;stroke-linejoin:miter;stroke-miterlimit:4;stroke-dasharray:none;stroke-dashoffset:0;stroke-opacity:1;paint-order:stroke fill markers;color-rendering:auto;image-rendering:auto;shape-rendering:auto;text-rendering:auto;enable-background:accumulate;stop-color:#000000"
           d="m 105.38405,172.26428 c -0.12969,0.15218 -0.3131,0.25686 -0.52154,0.2854 0.0381,0.38143 -0.17209,0.75078 -0.53998,0.89966 -0.4492,0.18179 -0.95809,-0.0359 -1.1442,-0.49582 -0.0529,-0.13075 -0.0734,-0.26558 -0.0654,-0.39578 h -0.56452 c -0.009,0.20219 0.0243,0.40918 0.1049,0.60822 0.29956,0.74018 1.1453,1.10637 1.8817,0.80835 0.67746,-0.27417 1.03009,-1.01663 0.84904,-1.71003 z" />
        <path
           inkscape:connector-curvature="0"
           style="fill:#3a4352;fill-opacity:1;stroke:none;stroke-width:0.566177;stroke-linecap:round;stroke-linejoin:round;stroke-miterlimit:4;stroke-dasharray:none;stroke-opacity:1;paint-order:stroke fill markers"
           d="m 102.80122,169.57535 -0.8403,0.86773 a 1.3069378,1.3069378 0 0 0 -0.4495,1.53751 1.3069378,1.3069378 0 0 0 8.1e-4,0.002 1.3069378,1.3069378 0 0 0 1.39248,0.79209 l 1.23368,0.0399 c -0.36481,-0.35888 -0.70704,-0.88845 -0.96505,-1.52038 a 0.19947681,0.19947681 0 0 1 -0.004,-0.008 0.19947681,0.19947681 0 0 1 0,-8.1e-4 0.19947681,0.19947681 0 0 1 0,-8.1e-4 0.19947681,0.19947681 0 0 1 -0.003,-0.008 c -0.2437,-0.60751 -0.36622,-1.20129 -0.36483,-1.70019 z"
           id="path1758-9-4-6-1-5-5-7-7-9-5-5-7-9-7" />
        <path
           inkscape:connector-curvature="0"
           style="fill:#3a4352;fill-opacity:1;stroke:none;stroke-width:0.566177;stroke-linecap:round;stroke-linejoin:round;stroke-miterlimit:4;stroke-dasharray:none;stroke-opacity:1;paint-order:stroke fill markers"
           d="m 105.24538,167.05129 v 4e-5 l -1.9884,2.05337 c -0.0312,0.1124 -0.0513,0.24846 -0.056,0.40297 -0.0133,0.44244 0.0962,1.02779 0.33757,1.62703 -1e-5,0 0,0 0,0 0.24338,0.5989 0.57199,1.09606 0.88947,1.40486 0.1441,0.14014 0.28547,0.24017 0.40857,0.2971 l 0.39766,0.0129 c 0.016,-0.0104 0.0316,-0.0226 0.0466,-0.0368 v 0.0383 l 2.34273,0.0758 c -0.17072,-0.10845 -0.33794,-0.24476 -0.50206,-0.40439 -0.0366,-0.0356 -0.073,-0.0724 -0.10924,-0.11029 -0.005,-0.005 -0.0101,-0.0107 -0.0152,-0.0161 -0.0139,-0.0147 -0.0278,-0.0295 -0.0416,-0.0446 -0.004,-0.004 -0.008,-0.008 -0.0113,-0.0123 -0.0149,-0.0163 -0.0297,-0.0327 -0.0445,-0.0493 -0.003,-0.004 -0.007,-0.008 -0.0102,-0.0115 -0.0151,-0.0171 -0.0302,-0.0344 -0.0452,-0.0518 -0.003,-0.004 -0.006,-0.007 -0.009,-0.0106 -0.055,-0.0643 -0.10941,-0.1313 -0.16318,-0.20077 -0.36368,-0.46978 -0.69734,-1.05406 -0.9674,-1.7155 a 0.28943779,0.28943779 0 0 1 -0.006,-0.0117 l 0.30564,-0.12367 -8.1e-4,-0.002 -0.30601,0.12384 a 0.28943779,0.28943779 0 0 1 -0.004,-0.0123 c -0.28075,-0.69992 -0.45082,-1.38739 -0.50795,-2.00329 v -0.005 c -0.004,-0.0424 -0.007,-0.0844 -0.01,-0.1261 -8.1e-4,-0.006 -8.1e-4,-0.0114 -10e-4,-0.017 -0.003,-0.0429 -0.005,-0.0854 -0.007,-0.12753 0,-0.004 1e-5,-0.007 -8.1e-4,-0.0112 -0.002,-0.0434 -0.003,-0.0865 -0.003,-0.12903 -8.1e-4,-0.0554 2e-5,-0.10997 0.002,-0.16372 0.007,-0.22878 0.0322,-0.44299 0.0794,-0.63961 z"
           id="path1223-5-0-8-5-0-0-3-8-8-1-3-9-1-4-1-2-7-4-9-6-4" />
        <path
           id="path1223-5-0-8-5-0-0-3-8-8-1-3-9-1-9-0-9-5-3-6-8"
           style="fill:#222730;fill-opacity:1;stroke:none;stroke-width:0.566177;stroke-linecap:round;stroke-linejoin:round;stroke-miterlimit:4;stroke-dasharray:none;stroke-opacity:1;paint-order:stroke fill markers"
           d="m 106.71854,165.84055 c -0.13037,0 -0.25943,0.0227 -0.38264,0.0725 -0.28167,0.11399 -0.48619,0.35126 -0.61328,0.63518 -0.1271,0.28392 -0.18815,0.62134 -0.19951,0.99804 -0.0204,0.67502 0.12345,1.48104 0.42633,2.31565 l 1.26116,1.26115 c -0.2261,-0.34993 -0.43865,-0.75472 -0.61891,-1.19831 0,-2.4e-4 0,-2.6e-4 0,-3.4e-4 -0.35024,-0.86949 -0.50918,-1.71878 -0.48981,-2.36076 0.01,-0.32244 0.0652,-0.59121 0.14927,-0.77896 0.084,-0.18775 0.185,-0.28776 0.30198,-0.33511 0.0512,-0.0207 0.10723,-0.032 0.17004,-0.0319 v 0 c 0.0808,2.4e-4 0.17273,0.0195 0.28015,0.0625 0.19096,0.0765 0.41777,0.23098 0.64902,0.45589 0.46042,0.44781 0.93685,1.16861 1.28993,2.03694 0,0 0,0 0,0 0.3507,0.87011 0.50988,1.72011 0.49051,2.36252 -0.01,0.32243 -0.0652,0.59121 -0.14927,0.77896 -0.084,0.18775 -0.18512,0.2878 -0.30211,0.33515 -0.11701,0.0473 -0.25908,0.0457 -0.45005,-0.0307 -0.0142,-0.006 -0.0286,-0.0119 -0.0431,-0.0184 l 0.61734,0.61737 c 0.031,-0.009 0.0617,-0.0194 0.092,-0.0316 0.28167,-0.11399 0.48624,-0.3513 0.61333,-0.63522 0.12707,-0.28392 0.18818,-0.62138 0.19955,-0.99809 0.0226,-0.75025 -0.15578,-1.66198 -0.53191,-2.59531 0,0 0,-2.6e-4 0,-3.4e-4 0,-4.9e-4 0,-0.001 -8.6e-4,-0.001 v 0 c -0.37888,-0.93221 -0.88478,-1.71141 -1.42284,-2.23474 -0.27015,-0.26277 -0.54876,-0.46274 -0.83753,-0.57836 -0.16207,-0.0649 -0.33149,-0.10221 -0.49874,-0.10235 z m -1.47323,1.21073 c 0,0 0,2.2e-4 0,2.2e-4 z m 0,2.2e-4 -1.03621,1.07008 1.15654,1.15655 c -0.0901,-0.34965 -0.15032,-0.68843 -0.17995,-1.00783 v -0.005 c -0.004,-0.0424 -0.007,-0.0844 -0.01,-0.1261 -8.5e-4,-0.006 -8.5e-4,-0.0114 -0.001,-0.017 -0.003,-0.0429 -0.005,-0.0854 -0.007,-0.12752 0,-0.004 0,-0.007 -8.5e-4,-0.0112 -10e-4,-0.0434 -0.003,-0.0865 -0.003,-0.12903 -8.6e-4,-0.0554 0,-0.10996 0.002,-0.16372 0.007,-0.2287 0.0322,-0.44284 0.0794,-0.6394 z"
           inkscape:connector-curvature="0" />
        <path
           d="m 107.21815,165.65191 c -0.13036,2e-5 -0.25942,0.0227 -0.38265,0.0725 -0.28166,0.11399 -0.48618,0.35125 -0.61326,0.63517 -0.12709,0.28392 -0.18815,0.62134 -0.19952,0.99805 -0.0225,0.7468 0.15523,1.65381 0.52781,2.58264 a 0.28943779,0.28943779 0 0 0 0.004,0.0123 v 0 a 0.28943779,0.28943779 0 0 0 0,8.9e-4 0.28943779,0.28943779 0 0 0 0,8.9e-4 v 0 a 0.28943779,0.28943779 0 0 0 0.006,0.0117 c 0.37829,0.92653 0.88135,1.70186 1.41694,2.22279 0.27016,0.26276 0.54876,0.46274 0.83754,0.57836 0.28876,0.1156 0.6007,0.14387 0.88235,0.0299 0.28167,-0.114 0.48623,-0.35131 0.61332,-0.63522 0.12708,-0.28392 0.18819,-0.62138 0.19955,-0.99808 0.0226,-0.75026 -0.15577,-1.66199 -0.5319,-2.59532 -4e-5,0 0,0 0,0 0,-8.1e-4 0,-9.7e-4 -8.1e-4,-0.001 h -4e-5 c -0.37887,-0.93221 -0.88474,-1.7114 -1.4228,-2.23473 -0.27016,-0.26278 -0.54876,-0.46275 -0.83753,-0.57836 -0.16244,-0.065 -0.33227,-0.10242 -0.49989,-0.1024 z m 0.005,0.57726 c 0.0808,0 0.17275,0.0196 0.28017,0.0625 0.19096,0.0765 0.41776,0.23099 0.649,0.4559 0.46041,0.4478 0.93685,1.16861 1.28993,2.03694 0,2e-5 4e-5,0 4e-5,0 0.35072,0.8701 0.5099,1.72011 0.49052,2.36251 -0.01,0.32244 -0.0652,0.59121 -0.14927,0.77896 -0.084,0.18775 -0.18512,0.2878 -0.30211,0.33515 -0.11699,0.0473 -0.25908,0.0457 -0.45005,-0.0307 -0.19096,-0.0765 -0.41781,-0.23098 -0.64905,-0.4559 -0.46067,-0.44805 -0.93742,-1.16941 -1.29055,-2.0384 -4e-5,0 0,0 0,0 -0.35023,-0.86949 -0.50918,-1.71878 -0.48981,-2.36076 0.01,-0.32243 0.0652,-0.59121 0.14926,-0.77895 0.0841,-0.18776 0.185,-0.28777 0.30199,-0.33511 0.0512,-0.0207 0.10723,-0.032 0.17005,-0.0319 z"
           style="color:#000000;font-style:normal;font-variant:normal;font-weight:normal;font-stretch:normal;font-size:medium;line-height:normal;font-family:sans-serif;font-variant-ligatures:normal;font-variant-position:normal;font-variant-caps:normal;font-variant-numeric:normal;font-variant-alternates:normal;font-variant-east-asian:normal;font-feature-settings:normal;font-variation-settings:normal;text-indent:0;text-align:start;text-decoration:none;text-decoration-line:none;text-decoration-style:solid;text-decoration-color:#000000;letter-spacing:normal;word-spacing:normal;text-transform:none;writing-mode:lr-tb;direction:ltr;text-orientation:mixed;dominant-baseline:auto;baseline-shift:baseline;text-anchor:start;white-space:normal;shape-padding:0;shape-margin:0;inline-size:0;clip-rule:nonzero;display:inline;overflow:visible;visibility:visible;isolation:auto;mix-blend-mode:normal;color-interpolation:sRGB;color-interpolation-filters:linearRGB;solid-color:#000000;solid-opacity:1;vector-effect:none;fill:#dc3c3c;fill-opacity:1;fill-rule:nonzero;stroke:none;stroke-width:0.578876;stroke-linecap:round;stroke-linejoin:round;stroke-miterlimit:4;stroke-dasharray:none;stroke-dashoffset:0;stroke-opacity:1;paint-order:stroke fill markers;color-rendering:auto;image-rendering:auto;shape-rendering:auto;text-rendering:auto;enable-background:accumulate;stop-color:#000000"
           id="path1287-8-6-0-2-47-6-22-75-1-7-5-4-2-0-9-5-3-3-0-5"
           inkscape:connector-curvature="0" />
        <path
           id="path2569-7-4-0-7-9-8-8-4-7-0-9-6-3-6-8-8-8"
           style="color:#000000;font-style:normal;font-variant:normal;font-weight:normal;font-stretch:normal;font-size:medium;line-height:normal;font-family:sans-serif;font-variant-ligatures:normal;font-variant-position:normal;font-variant-caps:normal;font-variant-numeric:normal;font-variant-alternates:normal;font-variant-east-asian:normal;font-feature-settings:normal;font-variation-settings:normal;text-indent:0;text-align:start;text-decoration:none;text-decoration-line:none;text-decoration-style:solid;text-decoration-color:#000000;letter-spacing:normal;word-spacing:normal;text-transform:none;writing-mode:lr-tb;direction:ltr;text-orientation:mixed;dominant-baseline:auto;baseline-shift:baseline;text-anchor:start;white-space:normal;shape-padding:0;shape-margin:0;inline-size:0;clip-rule:nonzero;display:inline;overflow:visible;visibility:visible;isolation:auto;mix-blend-mode:normal;color-interpolation:sRGB;color-interpolation-filters:linearRGB;solid-color:#000000;solid-opacity:1;vector-effect:none;fill:#dc3c3c;fill-opacity:1;fill-rule:nonzero;stroke:none;stroke-width:0.784635;stroke-linecap:butt;stroke-linejoin:miter;stroke-miterlimit:4;stroke-dasharray:none;stroke-dashoffset:0;stroke-opacity:1;color-rendering:auto;image-rendering:auto;shape-rendering:auto;text-rendering:auto;enable-background:accumulate;stop-color:#000000"
           d="m 109.46148,167.70434 -2.50425,2.10536 a 3.8131348,6.5516095 2.7845888 0 1 0.25934,0.96877 l 2.54461,-2.1392 a 2.1427238,0.78470589 85.9471 0 1 -0.2997,-0.93493 z"
           inkscape:connector-curvature="0" />
        <path
           d="m 105.88371,172.08367 c -0.12968,0.15218 -0.3131,0.25685 -0.52153,0.28539 0.0381,0.38144 -0.17209,0.75078 -0.53998,0.89966 -0.4492,0.1818 -0.95809,-0.0359 -1.1442,-0.49582 -0.0529,-0.13075 -0.0734,-0.26557 -0.0654,-0.39577 h -0.56452 c -0.009,0.20218 0.0243,0.40918 0.1049,0.60821 0.29955,0.74018 1.1453,1.10637 1.8817,0.80835 0.67746,-0.27417 1.03009,-1.01662 0.84903,-1.71002 z"
           style="color:#000000;font-style:normal;font-variant:normal;font-weight:normal;font-stretch:normal;font-size:medium;line-height:normal;font-family:sans-serif;font-variant-ligatures:normal;font-variant-position:normal;font-variant-caps:normal;font-variant-numeric:normal;font-variant-alternates:normal;font-variant-east-asian:normal;font-feature-settings:normal;font-variation-settings:normal;text-indent:0;text-align:start;text-decoration:none;text-decoration-line:none;text-decoration-style:solid;text-decoration-color:#000000;letter-spacing:normal;word-spacing:normal;text-transform:none;writing-mode:lr-tb;direction:ltr;text-orientation:mixed;dominant-baseline:auto;baseline-shift:baseline;text-anchor:start;white-space:normal;shape-padding:0;shape-margin:0;inline-size:0;clip-rule:nonzero;display:inline;overflow:visible;visibility:visible;isolation:auto;mix-blend-mode:normal;color-interpolation:sRGB;color-interpolation-filters:linearRGB;solid-color:#000000;solid-opacity:1;vector-effect:none;fill:#ffffff;fill-opacity:1;fill-rule:nonzero;stroke:none;stroke-width:0.56635;stroke-linecap:butt;stroke-linejoin:miter;stroke-miterlimit:4;stroke-dasharray:none;stroke-dashoffset:0;stroke-opacity:1;paint-order:stroke fill markers;color-rendering:auto;image-rendering:auto;shape-rendering:auto;text-rendering:auto;enable-background:accumulate;stop-color:#000000"
           id="path2768-5-2-79-5-1-8-9-7-2-7-9-5-59-5-2-3"
           inkscape:connector-curvature="0" />
        <path
           inkscape:connector-curvature="0"
           id="rect5125-0-6-5-8-0-0"
           style="fill:#bac2d0;fill-opacity:1;stroke:none;stroke-width:0.0171523;stroke-miterlimit:4;stroke-dasharray:none;paint-order:stroke fill markers;stop-color:#000000"
           d="m 103.04808,172.37712 c -0.009,0.20218 0.0244,0.40918 0.10489,0.60821 0.0316,0.078 0.0695,0.15154 0.11243,0.22088 l 0.58702,-0.15729 c -0.072,-0.0781 -0.13176,-0.17061 -0.17442,-0.27603 -0.0529,-0.13075 -0.0734,-0.26557 -0.0654,-0.39577 z m 2.29775,0.27155 c 0,3e-5 0,5e-5 0,8e-5 v 0 z" />
        <path
           inkscape:connector-curvature="0"
           id="path1758-2-5-8-7-9-02-8-1-3-49-9-6-6"
           d="m 103.30089,169.3867 -0.8403,0.86772 a 1.3069378,1.3069378 0 0 0 -0.4495,1.53752 1.3069378,1.3069378 0 0 0 8.1e-4,0.002 1.3069378,1.3069378 0 0 0 1.39248,0.79209 l 1.23368,0.0399 c -0.36481,-0.35889 -0.70705,-0.88845 -0.96506,-1.52038 a 0.19947681,0.19947681 0 0 1 -0.004,-0.008 0.19947681,0.19947681 0 0 1 0,-8.1e-4 0.19947681,0.19947681 0 0 1 0,-8.1e-4 0.19947681,0.19947681 0 0 1 -0.003,-0.008 c -0.2437,-0.60752 -0.36622,-1.2013 -0.36483,-1.7002 z"
           style="fill:#ffffff;fill-opacity:1;stroke:none;stroke-width:0.566177;stroke-linecap:round;stroke-linejoin:round;stroke-miterlimit:4;stroke-dasharray:none;stroke-opacity:1;paint-order:stroke fill markers" />
        <path
           inkscape:connector-curvature="0"
           id="path1223-5-0-8-5-0-0-3-7-0-1-5-5-1-3-6-2-1-6-0-2"
           d="m 105.74491,166.86288 -1.98822,2.05321 c -0.0312,0.1124 -0.0513,0.24845 -0.056,0.40295 -0.0134,0.44245 0.0962,1.0278 0.33758,1.62704 0,0 0,0 0,0 0.24338,0.59891 0.57196,1.09607 0.88944,1.40486 0.14412,0.14013 0.28549,0.24017 0.40858,0.29709 l 0.30359,0.01 v 8e-4 l 0.18442,0.005 2.29901,0.0744 c -0.17074,-0.10845 -0.33795,-0.24476 -0.50207,-0.40438 -0.0366,-0.0356 -0.073,-0.0724 -0.10924,-0.11029 -0.005,-0.005 -0.0101,-0.0107 -0.0152,-0.0161 -0.0139,-0.0147 -0.0278,-0.0295 -0.0416,-0.0446 -0.004,-0.004 -0.007,-0.008 -0.0113,-0.0123 -0.0149,-0.0163 -0.0297,-0.0327 -0.0445,-0.0494 -0.003,-0.004 -0.007,-0.008 -0.0102,-0.0115 -0.0151,-0.0171 -0.0302,-0.0344 -0.0452,-0.0519 -0.003,-0.004 -0.006,-0.007 -0.009,-0.0106 -0.055,-0.0643 -0.10944,-0.1313 -0.16319,-0.20077 -0.3637,-0.46977 -0.69734,-1.05406 -0.96741,-1.7155 a 0.28943779,0.28943779 0 0 1 -0.006,-0.0117 v 0 l -0.001,-0.002 v 0 a 0.28943779,0.28943779 0 0 1 -0.004,-0.0123 c -0.28075,-0.69992 -0.45082,-1.38738 -0.50794,-2.00327 v -0.005 c -0.004,-0.0424 -0.007,-0.0844 -0.01,-0.1261 -8.9e-4,-0.006 -8.9e-4,-0.0114 -0.001,-0.017 -0.003,-0.0429 -0.005,-0.0854 -0.007,-0.12752 0,-0.004 0,-0.007 -8.9e-4,-0.0112 -0.002,-0.0434 -0.003,-0.0865 -0.003,-0.12903 -8.9e-4,-0.0554 0,-0.10997 0.002,-0.16372 0.007,-0.2287 0.0322,-0.44284 0.0794,-0.6394 z"
           style="fill:#ffffff;fill-opacity:1;stroke:none;stroke-width:0.566177;stroke-linecap:round;stroke-linejoin:round;stroke-miterlimit:4;stroke-dasharray:none;stroke-opacity:1;paint-order:stroke fill markers" />
      </g>
    </g>
  </g>
</svg>
