<?xml version="1.0" encoding="utf-8"?>
<!-- Generator: Adobe Illustrator 16.0.0, SVG Export Plug-In . SVG Version: 6.00 Build 0)  -->
<!DOCTYPE svg PUBLIC "-//W3C//DTD SVG 1.1//EN" "http://www.w3.org/Graphics/SVG/1.1/DTD/svg11.dtd">
<svg version="1.1" id="Capa_1" xmlns="http://www.w3.org/2000/svg" xmlns:xlink="http://www.w3.org/1999/xlink" x="0px" y="0px"
	 width="996px" height="691px" viewBox="0 0 996 691" enable-background="new 0 0 996 691" xml:space="preserve">
<g>
	<path fill="#FFFFFF" d="M616.998,616.626h-30.9l17.688-88.446c31.451-4.14,55.808-31.119,55.808-63.682V323.864
		c0-41.383-33.667-75.05-75.05-75.05H573.05v-17.917c0-0.167-0.017-0.328-0.024-0.491c0.859-1.359,1.711-2.734,2.547-4.145
		c19.302-32.592,29.932-74.767,29.932-118.757c0-0.018-0.001-0.035-0.001-0.053c0-0.037-0.003-0.072-0.003-0.108
		C605.412,48.139,557.225,0,498,0S390.588,48.139,390.5,107.343c0,0.037-0.002,0.072-0.002,0.108c0,0.018-0.001,0.035-0.001,0.053
		c0,48.286,12.446,91.991,32.458,123.321c0,0.024-0.004,0.047-0.004,0.071v17.917h-11.494c-41.383,0-75.05,33.667-75.05,75.05
		v140.634c0,32.562,24.356,59.542,55.807,63.682l17.689,88.446h-30.9c-29.452,0-53.414,23.962-53.414,53.414v10.818
		c0,5.601,4.541,10.142,10.142,10.142h129.816c11.558,0,20.96-9.402,20.96-20.96v-43.272V486.134
		c0-6.338,5.156-11.494,11.494-11.494s11.494,5.156,11.494,11.494v140.634v43.272c0,11.558,9.402,20.96,20.96,20.96H660.27
		c5.602,0,10.143-4.541,10.143-10.142V670.04C670.412,640.588,646.45,616.626,616.998,616.626z M410.78,388.096h22.987v22.988
		H410.78V388.096z M454.052,388.096h87.896v22.988h-87.896V388.096z M562.232,388.096h22.987v22.988h-22.987V388.096z
		 M605.504,507.252V474.64h32.612C634.296,490.74,621.604,503.432,605.504,507.252z M443.234,255.808
		c16.049,15.303,34.776,24.108,54.766,24.108c15.273,0,30.028-5.086,43.854-15.118c3.758-2.728,7.396-5.793,10.912-9.174v3.318
		c0,0.004,0,0.008,0,0.014s0,0.008,0,0.014v10.804c0,12.303-10.009,22.312-22.312,22.312h-64.908
		c-12.303,0-22.312-10.009-22.312-22.312V255.808z M561.069,178.489c-6.934,0.513-13.816-2.297-18.909-7.494
		c5.67-3.966,12.228-6.475,19.289-9.159c6.292-2.392,13.118-4.993,19.495-8.978c-0.927,4.871-2.001,9.668-3.213,14.38
		C574.318,173.875,568.3,177.963,561.069,178.489z M498,20.284c47.948,0,86.974,38.894,87.209,86.788
		c-2.503,24.971-13.848,29.296-30.969,35.805c-14.865,5.651-33.364,12.684-43.866,36.222c-2.282,5.115,0.016,11.111,5.13,13.394
		c1.343,0.599,2.745,0.883,4.125,0.883c3.881,0,7.585-2.239,9.269-6.012c0.103-0.23,0.217-0.436,0.322-0.661
		c8.31,7.727,19.095,12.13,30.249,12.13c1.021,0,2.048-0.037,3.073-0.112c1.58-0.115,3.132-0.337,4.658-0.625
		c-2.747,6.279-5.775,12.25-9.08,17.831c-16.694,28.185-38.045,43.707-60.12,43.707c-22.142,0-43.496-15.407-60.128-43.384
		c-3.368-5.667-6.446-11.754-9.233-18.162c1.542,0.292,3.107,0.517,4.705,0.633c1.026,0.076,2.051,0.112,3.072,0.112
		c11.189,0,22.008-4.434,30.328-12.208c0.117,0.251,0.243,0.481,0.358,0.738c1.684,3.773,5.388,6.012,9.269,6.012
		c1.38,0,2.784-0.284,4.125-0.883c5.116-2.283,7.412-8.278,5.13-13.394c-10.502-23.538-29.001-30.57-43.866-36.222
		c-17.121-6.508-28.468-10.834-30.969-35.805C411.026,59.177,450.052,20.284,498,20.284z M418.208,167.342
		c-1.215-4.756-2.291-9.602-3.216-14.526c6.395,4.008,13.246,6.619,19.561,9.02c7.033,2.673,13.565,5.171,19.221,9.111
		c-5.097,5.225-12.001,8.047-18.959,7.542C427.622,177.966,421.626,173.918,418.208,167.342z M411.456,269.098h11.494v0.676
		c0,23.487,19.108,42.596,42.596,42.596h64.908c23.487,0,42.596-19.109,42.596-42.596v-0.676h11.494
		c30.198,0,54.767,24.568,54.767,54.767v130.492h-33.807V323.864c0-5.602-4.541-10.143-10.142-10.143
		c-5.602,0-10.143,4.541-10.143,10.143v43.948H410.78v-43.948c0-5.602-4.541-10.143-10.143-10.143
		c-5.601,0-10.142,4.541-10.142,10.143v130.492H356.69V323.864C356.69,293.666,381.257,269.098,411.456,269.098z M357.884,474.64
		h32.612v32.612C374.396,503.432,361.704,490.74,357.884,474.64z M466.222,670.04c0,0.373-0.303,0.676-0.676,0.676H345.872v-0.676
		c0-18.268,14.862-33.13,33.13-33.13h43.217c0.015,0,0.029,0.001,0.045,0.001c0.013,0,0.026-0.001,0.04-0.001h43.918V670.04z
		 M498,454.356c-17.522,0-31.778,14.255-31.778,31.777v130.492h-35.633l-19.809-99.043v-86.215h22.987v11.494
		c0,5.601,4.541,10.142,10.143,10.142c5.601,0,10.142-4.541,10.142-10.142v-11.494h87.896v11.494
		c0,5.601,4.541,10.142,10.142,10.142c5.602,0,10.143-4.541,10.143-10.142v-11.494h22.987v86.215l-19.809,99.043h-35.634V486.134
		C529.777,468.611,515.522,454.356,498,454.356z M650.128,670.716H530.454c-0.373,0-0.677-0.303-0.677-0.676v-33.13h43.919
		c0.014,0,0.027,0.001,0.04,0.001c0.016,0,0.03-0.001,0.045-0.001h43.217c18.268,0,33.13,14.862,33.13,33.13V670.716z"/>
	<path fill="#FFFFFF" d="M487.182,344.824h21.637c5.601,0,10.142-4.541,10.142-10.143c0-5.601-4.541-10.142-10.142-10.142h-21.637
		c-5.601,0-10.142,4.541-10.142,10.142C477.04,340.283,481.581,344.824,487.182,344.824z"/>
	<path fill="#FFFFFF" d="M477.04,226.502c0,5.601,4.541,10.142,10.142,10.142h21.637c5.601,0,10.142-4.541,10.142-10.142
		s-4.541-10.142-10.142-10.142h-21.637C481.581,216.36,477.04,220.901,477.04,226.502z"/>
</g>
</svg>
