<?xml version="1.0" encoding="utf-8"?>
<!-- Generator: Adobe Illustrator 16.0.0, SVG Export Plug-In . SVG Version: 6.00 Build 0)  -->
<!DOCTYPE svg PUBLIC "-//W3C//DTD SVG 1.1//EN" "http://www.w3.org/Graphics/SVG/1.1/DTD/svg11.dtd">
<svg version="1.1" id="Capa_1" xmlns="http://www.w3.org/2000/svg" xmlns:xlink="http://www.w3.org/1999/xlink" x="0px" y="0px"
	 width="461.55px" height="461.55px" viewBox="0 0 461.55 461.55" enable-background="new 0 0 461.55 461.55" xml:space="preserve">
<g>
	<g id="volume-off">
		<path fill="#FFFFFF" d="M345.525,229.5c0-45.9-25.5-84.15-63.75-102v56.1l63.75,63.75
			C345.525,239.701,345.525,234.6,345.525,229.5z M409.275,229.5c0,22.951-5.1,45.9-12.75,66.3l38.25,38.25
			c17.85-30.6,25.5-68.85,25.5-107.1c0-109.65-76.5-201.45-178.5-224.4V56.1C355.725,81.6,409.275,147.9,409.275,229.5z M34.425,0
			L1.275,33.15L121.125,153H1.275v153h102l127.5,127.5V262.65l109.65,109.65c-17.852,12.75-35.7,22.949-58.65,30.602v53.549
			c35.7-7.65,66.301-22.949,94.35-45.9l51,51l33.15-33.148l-229.5-229.5L34.425,0z M230.775,25.5l-53.55,53.55l53.55,53.55V25.5z"/>
	</g>
</g>
</svg>
